<?xml version="1.0" encoding="UTF-8"?>
<!--Generator: Apple Native CoreSVG 175.5-->
<!DOCTYPE svg
PUBLIC "-//W3C//DTD SVG 1.1//EN"
       "http://www.w3.org/Graphics/SVG/1.1/DTD/svg11.dtd">
<svg version="1.1" xmlns="http://www.w3.org/2000/svg" xmlns:xlink="http://www.w3.org/1999/xlink" width="3300" height="2200">
 <!--glyph: "", point size: 100.0, font version: "18.0d9e1", template writer version: "84"-->
 <style>.template-0 {fill:#000000}

.SFSymbolsPreview000000 {fill:#000000;opacity:1.0}
</style>
 <g id="Notes">
  <rect height="2200" id="artboard" style="fill:white;opacity:1" width="3300" x="0" y="0"/>
  <line style="fill:none;stroke:black;opacity:1;stroke-width:0.5;" x1="263" x2="3036" y1="292" y2="292"/>
  <text style="stroke:none;fill:black;font-family:sans-serif;font-size:13;font-weight:bold;" transform="matrix(1 0 0 1 263 322)">Weight/Scale Variations</text>
  <text style="stroke:none;fill:black;font-family:sans-serif;font-size:13;text-anchor:middle;" transform="matrix(1 0 0 1 559.711 322)">Ultralight</text>
  <text style="stroke:none;fill:black;font-family:sans-serif;font-size:13;text-anchor:middle;" transform="matrix(1 0 0 1 856.422 322)">Thin</text>
  <text style="stroke:none;fill:black;font-family:sans-serif;font-size:13;text-anchor:middle;" transform="matrix(1 0 0 1 1153.13 322)">Light</text>
  <text style="stroke:none;fill:black;font-family:sans-serif;font-size:13;text-anchor:middle;" transform="matrix(1 0 0 1 1449.84 322)">Regular</text>
  <text style="stroke:none;fill:black;font-family:sans-serif;font-size:13;text-anchor:middle;" transform="matrix(1 0 0 1 1746.56 322)">Medium</text>
  <text style="stroke:none;fill:black;font-family:sans-serif;font-size:13;text-anchor:middle;" transform="matrix(1 0 0 1 2043.27 322)">Semibold</text>
  <text style="stroke:none;fill:black;font-family:sans-serif;font-size:13;text-anchor:middle;" transform="matrix(1 0 0 1 2339.98 322)">Bold</text>
  <text style="stroke:none;fill:black;font-family:sans-serif;font-size:13;text-anchor:middle;" transform="matrix(1 0 0 1 2636.69 322)">Heavy</text>
  <text style="stroke:none;fill:black;font-family:sans-serif;font-size:13;text-anchor:middle;" transform="matrix(1 0 0 1 2933.4 322)">Black</text>
  <line style="fill:none;stroke:black;opacity:1;stroke-width:0.5;" x1="263" x2="3036" y1="1903" y2="1903"/>
  <g transform="matrix(1 0 0 1 263 1933)">
   <path d="M9.24805 0.830078Q10.8691 0.830078 12.2949 0.214844Q13.7207-0.400391 14.8096-1.49414Q15.8984-2.58789 16.5186-4.01367Q17.1387-5.43945 17.1387-7.05078Q17.1387-8.66211 16.5186-10.0879Q15.8984-11.5137 14.8047-12.6074Q13.7109-13.7012 12.2852-14.3164Q10.8594-14.9316 9.23828-14.9316Q7.62695-14.9316 6.20117-14.3164Q4.77539-13.7012 3.69141-12.6074Q2.60742-11.5137 1.9873-10.0879Q1.36719-8.66211 1.36719-7.05078Q1.36719-5.43945 1.9873-4.01367Q2.60742-2.58789 3.69629-1.49414Q4.78516-0.400391 6.21094 0.214844Q7.63672 0.830078 9.24805 0.830078ZM9.24805-0.654297Q7.91992-0.654297 6.7627-1.14746Q5.60547-1.64062 4.73145-2.51953Q3.85742-3.39844 3.36426-4.56055Q2.87109-5.72266 2.87109-7.05078Q2.87109-8.37891 3.35938-9.54102Q3.84766-10.7031 4.72168-11.582Q5.5957-12.4609 6.75293-12.9541Q7.91016-13.4473 9.23828-13.4473Q10.5762-13.4473 11.7383-12.9541Q12.9004-12.4609 13.7793-11.582Q14.6582-10.7031 15.1514-9.54102Q15.6445-8.37891 15.6445-7.05078Q15.6445-5.72266 15.1514-4.56055Q14.6582-3.39844 13.7793-2.51953Q12.9004-1.64062 11.7432-1.14746Q10.5859-0.654297 9.24805-0.654297ZM5.6543-7.05078Q5.6543-6.72852 5.85938-6.52832Q6.06445-6.32812 6.40625-6.32812L8.51562-6.32812L8.51562-4.20898Q8.51562-3.88672 8.71094-3.67676Q8.90625-3.4668 9.23828-3.4668Q9.56055-3.4668 9.77051-3.67676Q9.98047-3.88672 9.98047-4.20898L9.98047-6.32812L12.0898-6.32812Q12.4219-6.32812 12.627-6.52832Q12.832-6.72852 12.832-7.05078Q12.832-7.38281 12.627-7.58789Q12.4219-7.79297 12.0898-7.79297L9.98047-7.79297L9.98047-9.90234Q9.98047-10.2344 9.77051-10.4443Q9.56055-10.6543 9.23828-10.6543Q8.90625-10.6543 8.71094-10.4443Q8.51562-10.2344 8.51562-9.90234L8.51562-7.79297L6.40625-7.79297Q6.06445-7.79297 5.85938-7.58789Q5.6543-7.38281 5.6543-7.05078Z"/>
  </g>
  <g transform="matrix(1 0 0 1 281.867 1933)">
   <path d="M11.709 2.91016Q13.75 2.91016 15.5518 2.12891Q17.3535 1.34766 18.7305-0.0292969Q20.1074-1.40625 20.8887-3.20801Q21.6699-5.00977 21.6699-7.05078Q21.6699-9.0918 20.8887-10.8936Q20.1074-12.6953 18.7305-14.0723Q17.3535-15.4492 15.5469-16.2305Q13.7402-17.0117 11.6992-17.0117Q9.6582-17.0117 7.85645-16.2305Q6.05469-15.4492 4.68262-14.0723Q3.31055-12.6953 2.5293-10.8936Q1.74805-9.0918 1.74805-7.05078Q1.74805-5.00977 2.5293-3.20801Q3.31055-1.40625 4.6875-0.0292969Q6.06445 1.34766 7.86621 2.12891Q9.66797 2.91016 11.709 2.91016ZM11.709 1.25Q9.98047 1.25 8.47656 0.605469Q6.97266-0.0390625 5.83496-1.17676Q4.69727-2.31445 4.05762-3.81836Q3.41797-5.32227 3.41797-7.05078Q3.41797-8.7793 4.05762-10.2832Q4.69727-11.7871 5.83008-12.9297Q6.96289-14.0723 8.4668-14.7119Q9.9707-15.3516 11.6992-15.3516Q13.4277-15.3516 14.9365-14.7119Q16.4453-14.0723 17.583-12.9297Q18.7207-11.7871 19.3652-10.2832Q20.0098-8.7793 20.0098-7.05078Q20.0098-5.32227 19.3701-3.81836Q18.7305-2.31445 17.5879-1.17676Q16.4453-0.0390625 14.9414 0.605469Q13.4375 1.25 11.709 1.25ZM7.17773-7.05078Q7.17773-6.69922 7.41211-6.47461Q7.64648-6.25 8.01758-6.25L10.8887-6.25L10.8887-3.36914Q10.8887-2.99805 11.1133-2.76855Q11.3379-2.53906 11.6895-2.53906Q12.0605-2.53906 12.29-2.76855Q12.5195-2.99805 12.5195-3.36914L12.5195-6.25L15.4004-6.25Q15.7715-6.25 16.001-6.47461Q16.2305-6.69922 16.2305-7.05078Q16.2305-7.42188 16.001-7.65137Q15.7715-7.88086 15.4004-7.88086L12.5195-7.88086L12.5195-10.752Q12.5195-11.1328 12.29-11.3623Q12.0605-11.5918 11.6895-11.5918Q11.3379-11.5918 11.1133-11.3574Q10.8887-11.123 10.8887-10.752L10.8887-7.88086L8.01758-7.88086Q7.63672-7.88086 7.40723-7.65137Q7.17773-7.42188 7.17773-7.05078Z"/>
  </g>
  <g transform="matrix(1 0 0 1 305.646 1933)">
   <path d="M14.9707 5.66406Q17.0605 5.66406 18.96 5.01465Q20.8594 4.36523 22.4512 3.19336Q24.043 2.02148 25.2197 0.429688Q26.3965-1.16211 27.0459-3.06641Q27.6953-4.9707 27.6953-7.05078Q27.6953-9.14062 27.0459-11.04Q26.3965-12.9395 25.2197-14.5312Q24.043-16.123 22.4512-17.2998Q20.8594-18.4766 18.9551-19.126Q17.0508-19.7754 14.9609-19.7754Q12.8711-19.7754 10.9717-19.126Q9.07227-18.4766 7.48535-17.2998Q5.89844-16.123 4.72168-14.5312Q3.54492-12.9395 2.90039-11.04Q2.25586-9.14062 2.25586-7.05078Q2.25586-4.9707 2.90527-3.06641Q3.55469-1.16211 4.72656 0.429688Q5.89844 2.02148 7.49023 3.19336Q9.08203 4.36523 10.9814 5.01465Q12.8809 5.66406 14.9707 5.66406ZM14.9707 3.84766Q13.1641 3.84766 11.5283 3.2959Q9.89258 2.74414 8.53516 1.74805Q7.17773 0.751953 6.17676-0.610352Q5.17578-1.97266 4.62891-3.6084Q4.08203-5.24414 4.08203-7.05078Q4.08203-8.86719 4.62891-10.5029Q5.17578-12.1387 6.17188-13.501Q7.16797-14.8633 8.52539-15.8594Q9.88281-16.8555 11.5186-17.4023Q13.1543-17.9492 14.9609-17.9492Q16.7773-17.9492 18.4131-17.4023Q20.0488-16.8555 21.4111-15.8594Q22.7734-14.8633 23.7744-13.501Q24.7754-12.1387 25.3223-10.5029Q25.8691-8.86719 25.8691-7.05078Q25.8691-5.24414 25.3223-3.6084Q24.7754-1.97266 23.7793-0.610352Q22.7832 0.751953 21.4209 1.74805Q20.0586 2.74414 18.4229 3.2959Q16.7871 3.84766 14.9707 3.84766ZM9.19922-7.05078Q9.19922-6.66992 9.45801-6.4209Q9.7168-6.17188 10.1172-6.17188L14.0625-6.17188L14.0625-2.2168Q14.0625-1.81641 14.3115-1.55762Q14.5605-1.29883 14.9512-1.29883Q15.3516-1.29883 15.6104-1.55273Q15.8691-1.80664 15.8691-2.2168L15.8691-6.17188L19.8242-6.17188Q20.2246-6.17188 20.4785-6.4209Q20.7324-6.66992 20.7324-7.05078Q20.7324-7.46094 20.4785-7.71484Q20.2246-7.96875 19.8242-7.96875L15.8691-7.96875L15.8691-11.9141Q15.8691-12.3242 15.6104-12.583Q15.3516-12.8418 14.9512-12.8418Q14.5605-12.8418 14.3115-12.583Q14.0625-12.3242 14.0625-11.9141L14.0625-7.96875L10.1172-7.96875Q9.70703-7.96875 9.45312-7.71484Q9.19922-7.46094 9.19922-7.05078Z"/>
  </g>
  <text style="stroke:none;fill:black;font-family:sans-serif;font-size:13;font-weight:bold;" transform="matrix(1 0 0 1 263 1953)">Design Variations</text>
  <text style="stroke:none;fill:black;font-family:sans-serif;font-size:13;" transform="matrix(1 0 0 1 263 1971)">Symbols are supported in up to nine weights and three scales.</text>
  <text style="stroke:none;fill:black;font-family:sans-serif;font-size:13;" transform="matrix(1 0 0 1 263 1989)">For optimal layout with text and other symbols, vertically align</text>
  <text style="stroke:none;fill:black;font-family:sans-serif;font-size:13;" transform="matrix(1 0 0 1 263 2007)">symbols with the adjacent text.</text>
  <line style="fill:none;stroke:#00AEEF;stroke-width:0.5;opacity:1.0;" x1="776" x2="776" y1="1919" y2="1933"/>
  <g transform="matrix(1 0 0 1 776 1933)">
   <path d="M3.31055 0.15625Q3.70117 0.15625 3.91602-0.00976562Q4.13086-0.175781 4.26758-0.585938L5.52734-4.0332L11.2891-4.0332L12.5488-0.585938Q12.6855-0.175781 12.9004-0.00976562Q13.1152 0.15625 13.4961 0.15625Q13.8867 0.15625 14.1162-0.0585938Q14.3457-0.273438 14.3457-0.644531Q14.3457-0.869141 14.2383-1.17188L9.6582-13.3691Q9.48242-13.8184 9.17969-14.043Q8.87695-14.2676 8.4082-14.2676Q7.5-14.2676 7.17773-13.3789L2.59766-1.16211Q2.49023-0.859375 2.49023-0.634766Q2.49023-0.263672 2.70996-0.0537109Q2.92969 0.15625 3.31055 0.15625ZM6.00586-5.51758L8.37891-12.0898L8.42773-12.0898L10.8008-5.51758Z"/>
  </g>
  <line style="fill:none;stroke:#00AEEF;stroke-width:0.5;opacity:1.0;" x1="793.197" x2="793.197" y1="1919" y2="1933"/>
  <text style="stroke:none;fill:black;font-family:sans-serif;font-size:13;font-weight:bold;" transform="matrix(1 0 0 1 776 1953)">Margins</text>
  <text style="stroke:none;fill:black;font-family:sans-serif;font-size:13;" transform="matrix(1 0 0 1 776 1971)">Leading and trailing margins on the left and right side of each symbol</text>
  <text style="stroke:none;fill:black;font-family:sans-serif;font-size:13;" transform="matrix(1 0 0 1 776 1989)">can be adjusted by modifying the x-location of the margin guidelines.</text>
  <text style="stroke:none;fill:black;font-family:sans-serif;font-size:13;" transform="matrix(1 0 0 1 776 2007)">Modifications are automatically applied proportionally to all</text>
  <text style="stroke:none;fill:black;font-family:sans-serif;font-size:13;" transform="matrix(1 0 0 1 776 2025)">scales and weights.</text>
  <g transform="matrix(1 0 0 1 1289 1933)">
   <path d="M2.8418 1.86523L4.54102 3.57422Q5.18555 4.22852 5.90332 4.17969Q6.62109 4.13086 7.31445 3.35938L18.0078-8.42773L17.041-9.4043L6.42578 2.27539Q6.16211 2.57812 5.89355 2.61719Q5.625 2.65625 5.27344 2.30469L4.10156 1.14258Q3.75 0.791016 3.79395 0.522461Q3.83789 0.253906 4.14062-0.0195312L15.6152-10.8203L14.6387-11.7871L3.04688-0.898438Q2.30469-0.214844 2.25098 0.498047Q2.19727 1.21094 2.8418 1.86523ZM9.25781-16.3281Q8.94531-16.0254 8.90625-15.6348Q8.86719-15.2441 9.04297-14.9512Q9.21875-14.6777 9.55566-14.541Q9.89258-14.4043 10.3809-14.5215Q11.4746-14.7754 12.5977-14.7314Q13.7207-14.6875 14.7949-13.9844L14.209-12.5293Q13.9551-11.9043 14.0674-11.4404Q14.1797-10.9766 14.5801-10.5664L16.875-8.25195Q17.2363-7.88086 17.5781-7.82227Q17.9199-7.76367 18.3398-7.8418L19.4043-8.03711L20.0684-7.36328L20.0293-6.80664Q20-6.43555 20.1221-6.12305Q20.2441-5.81055 20.6055-5.44922L21.3672-4.70703Q21.7285-4.3457 22.1533-4.33105Q22.5781-4.31641 22.9297-4.66797L25.8398-7.58789Q26.1914-7.93945 26.1816-8.35449Q26.1719-8.76953 25.8105-9.13086L25.0391-9.89258Q24.6875-10.2539 24.3799-10.3857Q24.0723-10.5176 23.7109-10.4883L23.1348-10.4395L22.4902-11.0742L22.7344-12.1973Q22.832-12.6172 22.6953-12.9834Q22.5586-13.3496 22.1191-13.7891L19.9219-15.9766Q18.6719-17.2168 17.2607-17.8369Q15.8496-18.457 14.4189-18.4814Q12.9883-18.5059 11.665-17.959Q10.3418-17.4121 9.25781-16.3281ZM10.752-15.957Q11.6602-16.6211 12.7002-16.9043Q13.7402-17.1875 14.8047-17.085Q15.8691-16.9824 16.8701-16.5137Q17.8711-16.0449 18.7012-15.2051L21.1328-12.793Q21.3086-12.6172 21.3525-12.4512Q21.3965-12.2852 21.3379-12.0312L21.0156-10.5469L22.5195-9.0625L23.5059-9.12109Q23.6914-9.13086 23.7891-9.09668Q23.8867-9.0625 24.0332-8.91602L24.6094-8.33984L22.168-5.89844L21.5918-6.47461Q21.4453-6.62109 21.4062-6.71875Q21.3672-6.81641 21.377-7.01172L21.4453-7.98828L19.9512-9.47266L18.4277-9.21875Q18.1836-9.16992 18.042-9.2041Q17.9004-9.23828 17.7148-9.41406L15.7129-11.416Q15.5176-11.5918 15.4932-11.7529Q15.4688-11.9141 15.5859-12.1875L16.4648-14.2773Q15.293-15.3711 13.8281-15.791Q12.3633-16.2109 10.8398-15.7617Q10.7227-15.7324 10.6885-15.8057Q10.6543-15.8789 10.752-15.957Z"/>
  </g>
  <text style="stroke:none;fill:black;font-family:sans-serif;font-size:13;font-weight:bold;" transform="matrix(1 0 0 1 1289 1953)">Exporting</text>
  <text style="stroke:none;fill:black;font-family:sans-serif;font-size:13;" transform="matrix(1 0 0 1 1289 1971)">Symbols should be outlined when exporting to ensure the</text>
  <text style="stroke:none;fill:black;font-family:sans-serif;font-size:13;" transform="matrix(1 0 0 1 1289 1989)">design is preserved when submitting to Xcode.</text>
  <text id="template-version" style="stroke:none;fill:black;font-family:sans-serif;font-size:13;text-anchor:end;" transform="matrix(1 0 0 1 3036 1933)">Template v.4.0</text>
  <text style="stroke:none;fill:black;font-family:sans-serif;font-size:13;text-anchor:end;" transform="matrix(1 0 0 1 3036 1951)">Requires Xcode 14 or greater</text>
  <text id="descriptive-name" style="stroke:none;fill:black;font-family:sans-serif;font-size:13;text-anchor:end;" transform="matrix(1 0 0 1 3036 1969)">Generated from gif.rectangle</text>
  <text style="stroke:none;fill:black;font-family:sans-serif;font-size:13;text-anchor:end;" transform="matrix(1 0 0 1 3036 1987)">Typeset at 100 points</text>
  <text style="stroke:none;fill:black;font-family:sans-serif;font-size:13;" transform="matrix(1 0 0 1 263 726)">Small</text>
  <text style="stroke:none;fill:black;font-family:sans-serif;font-size:13;" transform="matrix(1 0 0 1 263 1156)">Medium</text>
  <text style="stroke:none;fill:black;font-family:sans-serif;font-size:13;" transform="matrix(1 0 0 1 263 1586)">Large</text>
 </g>
 <g id="Guides">
  <g id="H-reference" style="fill:#27AAE1;stroke:none;" transform="matrix(1 0 0 1 339 696)">
   <path d="M0.993347 0L3.6377 0L29.3282-67.1326L30.0301-67.1326L30.0301-70.459L28.1227-70.459ZM11.6882-24.4797L46.9818-24.4797L46.2311-26.7288L12.4382-26.7288ZM55.1193 0L57.7637 0L30.6381-70.459L29.4327-70.459L29.4327-67.1326Z"/>
  </g>
  <line id="Baseline-S" style="fill:none;stroke:#27AAE1;opacity:1;stroke-width:0.5;" x1="263" x2="3036" y1="696" y2="696"/>
  <line id="Capline-S" style="fill:none;stroke:#27AAE1;opacity:1;stroke-width:0.5;" x1="263" x2="3036" y1="625.541" y2="625.541"/>
  <g id="H-reference" style="fill:#27AAE1;stroke:none;" transform="matrix(1 0 0 1 339 1126)">
   <path d="M0.993347 0L3.6377 0L29.3282-67.1326L30.0301-67.1326L30.0301-70.459L28.1227-70.459ZM11.6882-24.4797L46.9818-24.4797L46.2311-26.7288L12.4382-26.7288ZM55.1193 0L57.7637 0L30.6381-70.459L29.4327-70.459L29.4327-67.1326Z"/>
  </g>
  <line id="Baseline-M" style="fill:none;stroke:#27AAE1;opacity:1;stroke-width:0.5;" x1="263" x2="3036" y1="1126" y2="1126"/>
  <line id="Capline-M" style="fill:none;stroke:#27AAE1;opacity:1;stroke-width:0.5;" x1="263" x2="3036" y1="1055.54" y2="1055.54"/>
  <g id="H-reference" style="fill:#27AAE1;stroke:none;" transform="matrix(1 0 0 1 339 1556)">
   <path d="M0.993347 0L3.6377 0L29.3282-67.1326L30.0301-67.1326L30.0301-70.459L28.1227-70.459ZM11.6882-24.4797L46.9818-24.4797L46.2311-26.7288L12.4382-26.7288ZM55.1193 0L57.7637 0L30.6381-70.459L29.4327-70.459L29.4327-67.1326Z"/>
  </g>
  <line id="Baseline-L" style="fill:none;stroke:#27AAE1;opacity:1;stroke-width:0.5;" x1="263" x2="3036" y1="1556" y2="1556"/>
  <line id="Capline-L" style="fill:none;stroke:#27AAE1;opacity:1;stroke-width:0.5;" x1="263" x2="3036" y1="1485.54" y2="1485.54"/>
  <line id="left-margin-Regular-M" style="fill:none;stroke:#00AEEF;stroke-width:0.5;opacity:1.0;" x1="1379.84" x2="1379.84" y1="1030.78" y2="1150.12"/>
  <line id="right-margin-Regular-M" style="fill:none;stroke:#00AEEF;stroke-width:0.5;opacity:1.0;" x1="1519.85" x2="1519.85" y1="1030.78" y2="1150.12"/>
 </g>
 <g id="Symbols">
  <g id="Black-L" transform="matrix(1 0 0 1 2845.18 1556)">
   <path class="template-0 SFSymbolsPreview000000" d="M36.2328 26.42L140.207 26.42C147.801 26.42 153.662 24.356 157.789 20.2281C161.916 16.1002 163.979 10.2613 163.979 2.71149L163.979-73.0913C163.979-80.6412 161.916-86.4803 157.789-90.6086C153.662-94.7369 147.801-96.8011 140.207-96.8011L36.2328-96.8011C28.6675-96.8011 22.8141-94.7374 18.6728-90.6099C14.5315-86.4824 12.4609-80.6428 12.4609-73.0913L12.4609 2.71149C12.4609 10.2622 14.5315 16.1012 18.6728 20.2287C22.8141 24.3562 28.6675 26.42 36.2328 26.42ZM38.9635 6.41875C36.8249 6.41875 35.2032 5.89904 34.0985 4.85963C32.9938 3.82021 32.4414 2.15895 32.4414-0.124164L32.4414-70.257C32.4414-72.5929 32.9938-74.2673 34.0985-75.2803C35.2032-76.2934 36.8249-76.7999 38.9635-76.7999L137.477-76.7999C139.652-76.7999 141.283-76.2934 142.37-75.2803C143.456-74.2673 143.999-72.5929 143.999-70.257L143.999-0.124164C143.999 2.15895 143.456 3.82021 142.37 4.85963C141.283 5.89904 139.652 6.41875 137.477 6.41875L38.9635 6.41875ZM66.317-13.2676C78.6217-13.2676 85.5064-20.7676 85.5064-31.168L85.5064-31.4609C85.5064-35.0352 83.5435-37.0566 80.1451-37.0566L70.9459-37.0566C68.4556-37.0566 66.8443-35.7383 66.8443-33.3652C66.8443-30.9922 68.4849-29.6738 70.9459-29.6738L75.1353-29.6738L75.106-29.0293C74.8131-24.7813 71.4146-21.9102 66.5513-21.9102C60.3697-21.9102 56.3853-26.9785 56.3853-35.3574C56.3853-43.5898 59.9888-48.3652 66.0826-48.3652C69.6275-48.3652 72.147-46.9297 74.1685-43.7363C75.4869-41.8027 77.0982-40.9531 79.2662-40.9531C82.0201-40.9531 83.8951-42.7988 83.8951-45.5234C83.8951-46.4902 83.69-47.3984 83.1334-48.4824C80.7017-53.2871 74.3443-57.0078 66.0533-57.0078C53.2799-57.0078 45.4283-48.9219 45.4283-35.2109C45.4283-21.3242 53.2799-13.2676 66.317-13.2676ZM108.653-13.3555C112.051-13.3555 114.014-15.377 114.014-18.9512L114.014-29.7617L126.436-29.7617C129.219-29.7617 130.918-31.2852 130.918-33.8633C130.918-36.4707 129.161-37.9941 126.436-37.9941L114.014-37.9941L114.014-47.6035L127.813-47.6035C130.655-47.6035 132.588-49.1855 132.588-51.9395C132.588-54.6934 130.713-56.2754 127.813-56.2754L108.653-56.2754C105.254-56.2754 103.262-54.2246 103.262-50.6504L103.262-18.9512C103.262-15.377 105.254-13.3555 108.653-13.3555ZM93.8716-13.3555C97.27-13.3555 99.2329-15.377 99.2329-18.9512L99.2329-51.3242C99.2329-54.8984 97.27-56.9199 93.8716-56.9199C90.4732-56.9199 88.481-54.8984 88.481-51.3242L88.481-18.9512C88.481-15.377 90.4732-13.3555 93.8716-13.3555Z"/>
  </g>
  <g id="Heavy-L" transform="matrix(1 0 0 1 2548.85 1556)">
   <path class="template-0 SFSymbolsPreview000000" d="M35.2097 25.5037L140.461 25.5037C147.804 25.5037 153.432 23.546 157.343 19.6305C161.254 15.715 163.21 10.1216 163.21 2.85025L163.21-73.2349C163.21-80.5062 161.254-86.1006 157.343-90.0181C153.432-93.9356 147.804-95.8944 140.461-95.8944L35.2097-95.8944C27.9104-95.8944 22.2942-93.9377 18.3609-90.0242C14.4276-86.1107 12.4609-80.5143 12.4609-73.2349L12.4609 2.85025C12.4609 10.1256 14.4276 15.72 18.3609 19.6335C22.2942 23.547 27.9104 25.5037 35.2097 25.5037ZM37.3339 7.97611C34.9292 7.97611 33.0988 7.37538 31.8428 6.17391C30.5867 4.97244 29.9587 3.10486 29.9587 0.571172L29.9587-70.9618C29.9587-73.5451 30.5867-75.425 31.8428-76.6017C33.0988-77.7784 34.9292-78.3667 37.3339-78.3667L138.337-78.3667C140.764-78.3667 142.599-77.7784 143.844-76.6017C145.089-75.425 145.712-73.5451 145.712-70.9618L145.712 0.571172C145.712 3.10486 145.089 4.97244 143.844 6.17391C142.599 7.37538 140.764 7.97611 138.337 7.97611L37.3339 7.97611ZM64.3659-12.2432C77.0808-12.2432 84.195-19.9932 84.195-30.7402L84.195-31.043C84.195-34.7363 82.1667-36.8252 78.655-36.8252L69.1492-36.8252C66.5759-36.8252 64.9109-35.4629 64.9109-33.0107C64.9109-30.5586 66.6062-29.1963 69.1492-29.1963L73.4783-29.1963L73.448-28.5303C73.1452-24.1406 69.6335-21.1738 64.6081-21.1738C58.2204-21.1738 54.1033-26.4111 54.1033-35.0693C54.1033-43.5762 57.8269-48.5107 64.1238-48.5107C67.7868-48.5107 70.3904-47.0273 72.4792-43.7275C73.8415-41.7295 75.5066-40.8516 77.7468-40.8516C80.5925-40.8516 82.53-42.7588 82.53-45.5742C82.53-46.5732 82.3181-47.5117 81.7429-48.6318C79.2302-53.5967 72.6609-57.4414 64.0935-57.4414C50.8943-57.4414 42.781-49.0859 42.781-34.918C42.781-20.5684 50.8943-12.2432 64.3659-12.2432ZM109.554-12.334C113.066-12.334 115.094-14.4229 115.094-18.1162L115.094-29.2871L127.93-29.2871C130.806-29.2871 132.562-30.8613 132.562-33.5254C132.562-36.2197 130.746-37.7939 127.93-37.7939L115.094-37.7939L115.094-47.7236L129.353-47.7236C132.29-47.7236 134.288-49.3584 134.288-52.2041C134.288-55.0498 132.35-56.6846 129.353-56.6846L109.554-56.6846C106.043-56.6846 103.984-54.5654 103.984-50.8721L103.984-18.1162C103.984-14.4229 106.043-12.334 109.554-12.334ZM93.5598-12.334C97.0715-12.334 99.0998-14.4229 99.0998-18.1162L99.0998-51.5684C99.0998-55.2617 97.0715-57.3506 93.5598-57.3506C90.048-57.3506 87.9894-55.2617 87.9894-51.5684L87.9894-18.1162C87.9894-14.4229 90.048-12.334 93.5598-12.334Z"/>
  </g>
  <g id="Bold-L" transform="matrix(1 0 0 1 2252.63 1556)">
   <path class="template-0 SFSymbolsPreview000000" d="M33.9212 24.3579L140.765 24.3579C147.776 24.3579 153.105 22.5291 156.753 18.8714C160.402 15.2137 162.226 9.93078 162.226 3.02275L162.226-73.4155C162.226-80.3236 160.402-85.6088 156.753-89.2713C153.105-92.9337 147.776-94.7649 140.765-94.7649L33.9212-94.7649C26.9695-94.7649 21.6549-92.9384 17.9773-89.2855C14.2997-85.6326 12.4609-80.3426 12.4609-73.4155L12.4609 3.02275C12.4609 9.94032 14.2997 15.2256 17.9773 18.8785C21.6549 22.5314 26.9695 24.3579 33.9212 24.3579ZM35.367 9.88516C32.6147 9.88516 30.5149 9.18228 29.0676 7.77651C27.6203 6.37075 26.8967 4.23784 26.8967 1.37779L26.8967-71.7848C26.8967-74.689 27.6203-76.8329 29.0676-78.2166C30.5149-79.6003 32.6147-80.2922 35.367-80.2922L139.319-80.2922C142.072-80.2922 144.172-79.6003 145.619-78.2166C147.066-76.8329 147.79-74.689 147.79-71.7848L147.79 1.37779C147.79 4.23784 147.066 6.37075 145.619 7.77651C144.172 9.18228 142.072 9.88516 139.319 9.88516L35.367 9.88516ZM62.655-12.25C75.3737-12.25 82.655-19.9688 82.655-31.4375L82.655-32.125C82.655-35.2188 80.905-37.0313 77.9362-37.0313L66.905-37.0313C64.6237-37.0313 63.1237-35.75 63.1237-33.5938C63.1237-31.4375 64.655-30.1563 66.905-30.1563L73.4675-30.1563L73.4362-29.4375C73.2487-23.8438 68.9675-20.0625 62.8112-20.0625C55.3112-20.0625 50.5612-26.0313 50.5612-35.8125C50.5612-45.4063 55.03-51.0625 62.4675-51.0625C66.905-51.0625 70.1862-49.0938 72.405-45.0625C73.5612-43.1563 74.9675-42.3125 76.9675-42.3125C79.4362-42.3125 81.0925-43.9688 81.0925-46.375C81.0925-47.2813 80.9362-48.1875 80.405-49.2813C77.8737-54.8125 71.0925-58.875 62.4362-58.875C49.1862-58.875 40.9362-50.125 40.9362-35.6875C40.9362-21.0313 49.1862-12.25 62.655-12.25ZM109.188-12.4063C112.156-12.4063 113.906-14.2188 113.906-17.3125L113.906-30.75L128.75-30.75C131.219-30.75 132.781-32.1563 132.781-34.5C132.781-36.8125 131.188-38.2188 128.75-38.2188L113.906-38.2188L113.906-50.2813L130.281-50.2813C132.844-50.2813 134.563-51.75 134.563-54.1875C134.563-56.625 132.875-58.0938 130.281-58.0938L109.188-58.0938C106.219-58.0938 104.469-56.2813 104.469-53.1875L104.469-17.3125C104.469-14.2188 106.219-12.4063 109.188-12.4063ZM92.9213-12.4063C95.89-12.4063 97.64-14.2188 97.64-17.3125L97.64-53.7813C97.64-56.9063 95.89-58.7188 92.9213-58.7188C89.9525-58.7188 88.2025-56.9063 88.2025-53.7813L88.2025-17.3125C88.2025-14.2188 89.9525-12.4063 92.9213-12.4063Z"/>
  </g>
  <g id="Semibold-L" transform="matrix(1 0 0 1 1956.26 1556)">
   <path class="template-0 SFSymbolsPreview000000" d="M33.033 23.568L140.975 23.568C147.756 23.568 152.88 21.828 156.347 18.348C159.814 14.8681 161.547 9.79929 161.547 3.14167L161.547-73.5401C161.547-80.1977 159.814-85.2698 156.347-88.7564C152.88-92.243 147.756-93.9863 140.975-93.9863L33.033-93.9863C26.3209-93.9863 21.2142-92.2496 17.7129-88.7763C14.2116-85.3029 12.4609-80.2242 12.4609-73.5401L12.4609 3.14167C12.4609 9.81249 14.2116 14.8846 17.7129 18.358C21.2142 21.8313 26.3209 23.568 33.033 23.568ZM34.0111 11.2012C31.0192 11.2012 28.7336 10.4279 27.1544 8.88134C25.5753 7.33473 24.7857 5.01891 24.7857 1.93386L24.7857-72.3522C24.7857-75.4776 25.5753-77.8035 27.1544-79.3299C28.7336-80.8564 31.0192-81.6196 34.0111-81.6196L139.997-81.6196C142.974-81.6196 145.256-80.8564 146.843-79.3299C148.429-77.8035 149.222-75.4776 149.222-72.3522L149.222 1.93386C149.222 5.01891 148.429 7.33473 146.843 8.88134C145.256 10.4279 142.974 11.2012 139.997 11.2012L34.0111 11.2012ZM63.054-10.2031C76.5676-10.2031 84.304-18.4043 84.304-30.5898L84.304-31.3203C84.304-34.6074 82.4446-36.5332 79.2903-36.5332L67.5696-36.5332C65.1458-36.5332 63.552-35.1719 63.552-32.8809C63.552-30.5898 65.179-29.2285 67.5696-29.2285L74.5423-29.2285L74.5091-28.4648C74.3098-22.5215 69.761-18.5039 63.22-18.5039C55.2512-18.5039 50.2044-24.8457 50.2044-35.2383C50.2044-45.4316 54.9524-51.4414 62.8548-51.4414C67.5696-51.4414 71.0559-49.3496 73.4134-45.0664C74.6419-43.041 76.136-42.1445 78.261-42.1445C80.8841-42.1445 82.6438-43.9043 82.6438-46.4609C82.6438-47.4238 82.4778-48.3867 81.9134-49.5488C79.2239-55.4258 72.0188-59.7422 62.8216-59.7422C48.7434-59.7422 39.9778-50.4453 39.9778-35.1055C39.9778-19.5332 48.7434-10.2031 63.054-10.2031ZM109.105-10.3691C112.259-10.3691 114.119-12.2949 114.119-15.582L114.119-29.8594L129.89-29.8594C132.513-29.8594 134.174-31.3535 134.174-33.8438C134.174-36.3008 132.48-37.7949 129.89-37.7949L114.119-37.7949L114.119-50.6113L131.517-50.6113C134.24-50.6113 136.066-52.1719 136.066-54.7617C136.066-57.3516 134.273-58.9121 131.517-58.9121L109.105-58.9121C105.951-58.9121 104.091-56.9863 104.091-53.6992L104.091-15.582C104.091-12.2949 105.951-10.3691 109.105-10.3691ZM93.5171-10.3691C96.6714-10.3691 98.5307-12.2949 98.5307-15.582L98.5307-54.3301C98.5307-57.6504 96.6714-59.5762 93.5171-59.5762C90.3628-59.5762 88.5034-57.6504 88.5034-54.3301L88.5034-15.582C88.5034-12.2949 90.3628-10.3691 93.5171-10.3691Z"/>
  </g>
  <g id="Medium-L" transform="matrix(1 0 0 1 1659.81 1556)">
   <path class="template-0 SFSymbolsPreview000000" d="M32.3595 22.9691L141.134 22.9691C147.741 22.9691 152.71 21.2965 156.039 17.9512C159.368 14.606 161.032 9.69955 161.032 3.23184L161.032-73.6346C161.032-80.1023 159.368-85.0127 156.039-88.366C152.71-91.7193 147.741-93.3959 141.134-93.3959L32.3595-93.3959C25.8291-93.3959 20.8801-91.7273 17.5124-88.3902C14.1447-85.053 12.4609-80.1345 12.4609-73.6346L12.4609 3.23184C12.4609 9.71561 14.1447 14.6261 17.5124 17.9633C20.8801 21.3005 25.8291 22.9691 32.3595 22.9691ZM32.9829 12.1992C29.8093 12.1992 27.3829 11.3725 25.7038 9.71906C24.0246 8.06567 23.185 5.61115 23.185 2.3555L23.185-72.7824C23.185-76.0755 24.0246-78.5394 25.7038-80.1741C27.3829-81.8087 29.8093-82.626 32.9829-82.626L140.51-82.626C143.659-82.626 146.079-81.8087 147.771-80.1741C149.462-78.5394 150.308-76.0755 150.308-72.7824L150.308 2.3555C150.308 5.61115 149.462 8.06567 147.771 9.71906C146.079 11.3725 143.659 12.1992 140.51 12.1992L32.9829 12.1992ZM61.4666-10.1797C74.8992-10.1797 82.7263-18.2803 82.7263-31.3027L82.7263-32.5332C82.7263-35.0283 81.2566-36.5322 78.8982-36.5322L65.2263-36.5322C63.2439-36.5322 61.8767-35.3018 61.8767-33.4219C61.8767-31.5762 63.2439-30.3457 65.2263-30.3457L75.1726-30.3457L75.1726-29.4912C75.0701-22.0059 69.533-16.8789 61.5349-16.8789C52.1355-16.8789 46.2908-24.1592 46.2908-35.9512C46.2908-47.5381 51.9646-54.4424 61.3982-54.4424C67.1062-54.4424 71.4812-51.7422 73.9763-46.5127C74.9334-44.5986 76.0613-43.7783 77.8044-43.7783C79.8894-43.7783 81.2224-45.1455 81.2224-47.1621C81.2224-48.0166 81.1199-48.8711 80.6755-49.9648C77.9412-56.5615 70.5584-61.1416 61.364-61.1416C47.3162-61.1416 38.4636-51.4346 38.4636-35.8828C38.4636-20.0576 47.3503-10.1797 61.4666-10.1797ZM108.004-10.4531C110.362-10.4531 111.832-11.957 111.832-14.418L111.832-31.6445L130.118-31.6445C132.169-31.6445 133.57-32.9092 133.57-34.8916C133.57-36.8398 132.169-38.1045 130.118-38.1045L111.832-38.1045L111.832-53.6904L131.93-53.6904C134.049-53.6904 135.518-54.9893 135.518-57.0059C135.518-59.0225 134.083-60.3213 131.93-60.3213L108.004-60.3213C105.611-60.3213 104.176-58.8174 104.176-56.3564L104.176-14.418C104.176-11.957 105.611-10.4531 108.004-10.4531ZM92.6478-10.4531C95.0062-10.4531 96.4759-11.957 96.4759-14.418L96.4759-56.9033C96.4759-59.3643 95.0062-60.8682 92.6478-60.8682C90.2552-60.8682 88.8197-59.3643 88.8197-56.9033L88.8197-14.418C88.8197-11.957 90.2552-10.4531 92.6478-10.4531Z"/>
  </g>
  <g id="Regular-L" transform="matrix(1 0 0 1 1363.43 1556)">
   <path class="template-0 SFSymbolsPreview000000" d="M31.481 22.1878L141.341 22.1878C147.722 22.1878 152.487 20.6031 155.637 17.4336C158.786 14.2641 160.361 9.56942 160.361 3.34945L160.361-73.7578C160.361-79.9777 158.786-84.6774 155.637-87.8568C152.487-91.0362 147.722-92.6259 141.341-92.6259L31.481-92.6259C25.1876-92.6259 20.4442-91.0461 17.2509-87.8865C14.0576-84.727 12.4609-80.0174 12.4609-73.7578L12.4609 3.34945C12.4609 9.58928 14.0576 14.289 17.2509 17.4485C20.4442 20.608 25.1876 22.1878 31.481 22.1878ZM31.6419 13.5008C28.2313 13.5008 25.6212 12.6044 23.8116 10.8117C22.002 9.01904 21.0972 6.38363 21.0972 2.90547L21.0972-73.3435C21.0972-76.8554 22.002-79.4993 23.8116-81.2751C25.6212-83.0509 28.2313-83.9388 31.6419-83.9388L141.18-83.9388C144.551-83.9388 147.152-83.0509 148.981-81.2751C150.81-79.4993 151.725-76.8554 151.725-73.3435L151.725 2.90547C151.725 6.38363 150.81 9.01904 148.981 10.8117C147.152 12.6044 144.551 13.5008 141.18 13.5008L31.6419 13.5008ZM60.7485-10.1797C74.1812-10.1797 82.0083-18.2803 82.0083-31.3027L82.0083-32.5332C82.0083-35.0283 80.5386-36.5322 78.1802-36.5322L64.5083-36.5322C62.5259-36.5322 61.1587-35.3018 61.1587-33.4219C61.1587-31.5762 62.5259-30.3457 64.5083-30.3457L74.4546-30.3457L74.4546-29.4912C74.3521-22.0059 68.8149-16.8789 60.8169-16.8789C51.4175-16.8789 45.5728-24.1592 45.5728-35.9512C45.5728-47.5381 51.2466-54.4424 60.6802-54.4424C66.3882-54.4424 70.7632-51.7422 73.2583-46.5127C74.2153-44.5986 75.3433-43.7783 77.0864-43.7783C79.1714-43.7783 80.5044-45.1455 80.5044-47.1621C80.5044-48.0166 80.4019-48.8711 79.9575-49.9648C77.2232-56.5615 69.8403-61.1416 60.646-61.1416C46.5982-61.1416 37.7456-51.4346 37.7456-35.8828C37.7456-20.0576 46.6323-10.1797 60.7485-10.1797ZM108.736-10.4531C111.095-10.4531 112.565-11.957 112.565-14.418L112.565-31.6445L130.851-31.6445C132.902-31.6445 134.303-32.9092 134.303-34.8916C134.303-36.8398 132.902-38.1045 130.851-38.1045L112.565-38.1045L112.565-53.6904L132.662-53.6904C134.781-53.6904 136.251-54.9893 136.251-57.0059C136.251-59.0225 134.816-60.3213 132.662-60.3213L108.736-60.3213C106.344-60.3213 104.908-58.8174 104.908-56.3564L104.908-14.418C104.908-11.957 106.344-10.4531 108.736-10.4531ZM92.6551-10.4531C95.0135-10.4531 96.4832-11.957 96.4832-14.418L96.4832-56.9033C96.4832-59.3643 95.0135-60.8682 92.6551-60.8682C90.2625-60.8682 88.827-59.3643 88.827-56.9033L88.827-14.418C88.827-11.957 90.2625-10.4531 92.6551-10.4531Z"/>
  </g>
  <g id="Light-L" transform="matrix(1 0 0 1 1067.16 1556)">
   <path class="template-0 SFSymbolsPreview000000" d="M30.4549 21.3259L141.485 21.3259C147.496 21.3259 151.998 19.813 154.99 16.7872C157.983 13.7614 159.479 9.32319 159.479 3.47258L159.479-73.9014C159.479-79.752 157.983-84.1986 154.99-87.2411C151.998-90.2837 147.496-91.805 141.485-91.805L30.4549-91.805C24.5172-91.805 20.0338-90.3005 17.0046-87.2914C13.9755-84.2823 12.4609-79.819 12.4609-73.9014L12.4609 3.47258C12.4609 9.35666 13.9755 13.8032 17.0046 16.8123C20.0338 19.8214 24.5172 21.3259 30.4549 21.3259ZM30.6158 14.6911C26.8495 14.6911 23.9828 13.7127 22.0159 11.7558C20.049 9.79891 19.0656 6.9172 19.0656 3.11069L19.0656-73.5898C19.0656-77.4164 20.049-80.3031 22.0159-82.2499C23.9828-84.1967 26.8495-85.1701 30.6158-85.1701L141.324-85.1701C145.023-85.1701 147.873-84.1967 149.873-82.2499C151.874-80.3031 152.874-77.4164 152.874-73.5898L152.874 3.11069C152.874 6.9172 151.874 9.79891 149.873 11.7558C147.873 13.7127 145.023 14.6911 141.324 14.6911L30.6158 14.6911ZM59.5567-9.1552C73.1087-9.1552 81.0991-17.2864 81.0991-31.0144L81.0991-32.5632C81.0991-34.5696 79.8671-35.8368 77.9311-35.8368L62.9359-35.8368C61.1759-35.8368 59.9087-34.7104 59.9087-33.056C59.9087-31.4016 61.1759-30.2752 62.9359-30.2752L74.7631-30.2752L74.7631-29.36C74.7631-20.8416 68.5679-14.9984 59.5567-14.9984C49.2079-14.9984 42.8015-22.9184 42.8015-35.696C42.8015-48.2624 49.1023-55.7952 59.5567-55.7952C65.9631-55.7952 70.8911-52.6976 73.4959-46.8192C74.3055-44.9536 75.2559-44.1792 76.8047-44.1792C78.5647-44.1792 79.6911-45.3408 79.6911-47.0656C79.6911-47.84 79.6207-48.6496 79.1983-49.7408C76.4527-56.8512 68.8495-61.6384 59.5567-61.6384C45.3359-61.6384 36.2895-51.536 36.2895-35.6608C36.2895-19.504 45.3711-9.1552 59.5567-9.1552ZM107.122-9.5072C109.058-9.5072 110.29-10.7744 110.29-12.7808L110.29-32L130.319-32C132.079-32 133.311-33.1264 133.311-34.816C133.311-36.5056 132.079-37.632 130.319-37.632L110.29-37.632L110.29-55.0912L132.29-55.0912C134.085-55.0912 135.317-56.2528 135.317-57.9424C135.317-59.632 134.085-60.7936 132.29-60.7936L107.122-60.7936C105.186-60.7936 103.954-59.5264 103.954-57.52L103.954-12.7808C103.954-10.7744 105.186-9.5072 107.122-9.5072ZM91.6467-9.5072C93.5827-9.5072 94.8147-10.7744 94.8147-12.7808L94.8147-58.0128C94.8147-60.0192 93.5827-61.2864 91.6467-61.2864C89.7107-61.2864 88.4787-60.0192 88.4787-58.0128L88.4787-12.7808C88.4787-10.7744 89.7107-9.5072 91.6467-9.5072Z"/>
  </g>
  <g id="Thin-L" transform="matrix(1 0 0 1 771.035 1556)">
   <path class="template-0 SFSymbolsPreview000000" d="M29.0978 20.1859L141.675 20.1859C147.198 20.1859 151.351 18.768 154.135 15.9322C156.92 13.0964 158.312 8.99748 158.312 3.63544L158.312-74.0914C158.312-79.4534 156.92-83.5652 154.135-86.4269C151.351-89.2885 147.198-90.7193 141.675-90.7193L29.0978-90.7193C23.6306-90.7193 19.491-89.3143 16.6789-86.5043C13.8669-83.6942 12.4609-79.5566 12.4609-74.0914L12.4609 3.63544C12.4609 9.04908 13.8669 13.1609 16.6789 15.9709C19.491 18.7809 23.6306 20.1859 29.0978 20.1859ZM29.2587 16.2653C25.0219 16.2653 21.816 15.1783 19.641 13.0043C17.466 10.8303 16.3785 7.62289 16.3785 3.38211L16.3785-73.9155C16.3785-78.1583 17.466-81.3662 19.641-83.5392C21.816-85.7122 25.0219-86.7987 29.2587-86.7987L141.514-86.7987C145.647-86.7987 148.827-85.7122 151.054-83.5392C153.281-81.3662 154.394-78.1583 154.394-73.9155L154.394 3.38211C154.394 7.62289 153.281 10.8303 151.054 13.0043C148.827 15.1783 145.647 16.2653 141.514 16.2653L29.2587 16.2653ZM59.5406-8.15771C73.2735-8.15771 81.4767-16.5073 81.4767-30.46L81.4767-32.9502C81.4767-34.5615 80.5245-35.5503 78.9864-35.5503L61.9942-35.5503C60.566-35.5503 59.5773-34.6714 59.5773-33.353C59.5773-32.0347 60.566-31.1558 61.9942-31.1558L76.4962-31.1558L76.4962-29.2881C76.4962-19.3271 69.7579-12.8086 59.5406-12.8086C48.2247-12.8086 40.9371-21.7808 40.9371-35.7334C40.9371-49.5029 48.0782-58.0356 59.5406-58.0356C67.048-58.0356 72.9073-54.1172 75.4708-47.3057C76.0567-45.8042 76.8258-45.1816 78.0709-45.1816C79.4625-45.1816 80.3414-46.0972 80.3414-47.4888C80.3414-48.1846 80.2316-48.917 79.8653-49.9058C77.0821-57.5596 69.2086-62.6865 59.5406-62.6865C45.1119-62.6865 35.8102-52.103 35.8102-35.7334C35.8102-19.0708 45.2218-8.15771 59.5406-8.15771ZM105.32-8.4873C106.858-8.4873 107.811-9.47607 107.811-11.0874L107.811-32.9868L130.149-32.9868C131.578-32.9868 132.53-33.9023 132.53-35.2207C132.53-36.5757 131.578-37.4546 130.149-37.4546L107.811-37.4546L107.811-57.3032L132.237-57.3032C133.702-57.3032 134.654-58.2554 134.654-59.5737C134.654-60.9287 133.702-61.8442 132.237-61.8442L105.32-61.8442C103.782-61.8442 102.83-60.8555 102.83-59.2441L102.83-11.0874C102.83-9.47607 103.782-8.4873 105.32-8.4873ZM91.2378-8.4873C92.7759-8.4873 93.7281-9.47607 93.7281-11.0874L93.7281-59.7568C93.7281-61.3682 92.7759-62.3569 91.2378-62.3569C89.6997-62.3569 88.7476-61.3682 88.7476-59.7568L88.7476-11.0874C88.7476-9.47607 89.6997-8.4873 91.2378-8.4873Z"/>
  </g>
  <g id="Ultralight-L" transform="matrix(1 0 0 1 474.623 1556)">
   <path class="template-0 SFSymbolsPreview000000" d="M28.4027 19.6021L141.772 19.6021C147.045 19.6021 151.02 18.2328 153.697 15.4943C156.375 12.7558 157.714 8.83062 157.714 3.71885L157.714-74.1887C157.714-79.3005 156.375-83.2409 153.697-86.0098C151.02-88.7787 147.045-90.1632 141.772-90.1632L28.4027-90.1632C23.1764-90.1632 19.2129-88.8092 16.5121-86.1011C13.8113-83.393 12.4609-79.4222 12.4609-74.1887L12.4609 3.71885C12.4609 8.89148 13.8113 12.8318 16.5121 15.5399C19.2129 18.248 23.1764 19.6021 28.4027 19.6021ZM28.5636 17.0716C24.0859 17.0716 20.7062 15.929 18.4246 13.6438C16.143 11.3585 15.0022 7.98431 15.0022 3.52113L15.0022-74.0823C15.0022-78.5382 16.143-81.9106 18.4246-84.1995C20.7062-86.4884 24.0859-87.6328 28.5636-87.6328L141.611-87.6328C145.967-87.6328 149.316-86.4884 151.659-84.1995C154.002-81.9106 155.173-78.5382 155.173-74.0823L155.173 3.52113C155.173 7.98431 154.002 11.3585 151.659 13.6438C149.316 15.929 145.967 17.0716 141.611 17.0716L28.5636 17.0716ZM60.4147-8.2272C73.7363-8.2272 81.8323-16.4704 81.8323-30.0128L81.8323-33.7296C81.8323-34.6864 81.2803-35.2752 80.3971-35.2752L61.4451-35.2752C60.5619-35.2752 60.0099-34.7232 60.0099-33.9504C60.0099-33.1776 60.5619-32.6256 61.4451-32.6256L78.9251-32.6256L78.9251-29.5712C78.9251-18.1264 71.8227-10.9504 60.4147-10.9504C48.3075-10.9504 40.1379-20.96 40.1379-35.9008C40.1379-50.584 48.1235-60.152 60.4147-60.152C69.0259-60.152 75.9443-55.2944 78.2627-47.5296C78.5939-46.6096 78.9987-46.2048 79.7715-46.2048C80.6179-46.2048 81.0595-46.7568 81.0595-47.5664C81.0595-48.1184 80.9491-48.744 80.6915-49.5168C77.9315-57.576 70.0563-62.8752 60.4147-62.8752C46.4307-62.8752 37.1571-52.1296 37.1571-35.864C37.1571-19.3776 46.5779-8.2272 60.4147-8.2272ZM103.854-8.448C104.737-8.448 105.326-9.0368 105.326-9.9936L105.326-34.576L129.725-34.576C130.608-34.576 131.16-35.128 131.16-35.9008C131.16-36.6736 130.608-37.2256 129.725-37.2256L105.326-37.2256L105.326-59.416L131.933-59.416C132.816-59.416 133.368-59.968 133.368-60.7776C133.368-61.5504 132.816-62.1024 131.933-62.1024L103.854-62.1024C102.971-62.1024 102.419-61.5136 102.419-60.5568L102.419-9.9936C102.419-9.0368 102.971-8.448 103.854-8.448ZM91.1688-8.448C92.052-8.448 92.6408-9.0368 92.6408-9.9936L92.6408-61.1088C92.6408-62.0656 92.052-62.6544 91.1688-62.6544C90.2856-62.6544 89.7336-62.0656 89.7336-61.1088L89.7336-9.9936C89.7336-9.0368 90.2856-8.448 91.1688-8.448Z"/>
  </g>
  <g id="Black-M" transform="matrix(1 0 0 1 2861.97 1126)">
   <path class="template-0 SFSymbolsPreview000000" d="M31.6183 13.2036L111.233 13.2036C117.282 13.2036 121.987 11.523 125.348 8.1618C128.709 4.80062 130.39 0.10082 130.39-5.9376L130.39-64.4588C130.39-70.4972 128.709-75.1969 125.348-78.558C121.987-81.9191 117.282-83.5996 111.233-83.5996L31.6183-83.5996C25.5766-83.5996 20.8733-81.919 17.5084-78.5577C14.1434-75.1964 12.4609-70.4968 12.4609-64.4588L12.4609-5.9376C12.4609 0.10062 14.1434 4.80037 17.5084 8.16165C20.8733 11.523 25.5766 13.2036 31.6183 13.2036ZM34.2552-4.14002C32.7788-4.14002 31.667-4.48415 30.9198-5.1724C30.1726-5.86065 29.799-7.00376 29.799-8.60171L29.799-61.7944C29.799-63.4341 30.1726-64.5876 30.9198-65.255C31.667-65.9224 32.7788-66.2561 34.2552-66.2561L108.596-66.2561C110.111-66.2561 111.232-65.9224 111.96-65.255C112.688-64.5876 113.052-63.4341 113.052-61.7944L113.052-8.60171C113.052-7.00376 112.688-5.86065 111.96-5.1724C111.232-4.48415 110.111-4.14002 108.596-4.14002L34.2552-4.14002ZM53.8615-19.4604C63.1418-19.4604 68.2783-25.1581 68.2783-32.5607C68.2783-35.6254 66.6165-37.352 63.7029-37.352L57.6816-37.352C55.6097-37.352 54.2932-36.2729 54.2932-34.3089C54.2932-32.3449 55.6313-31.2658 57.6816-31.2658L59.4729-31.2658L59.4297-30.8342C59.1707-28.3307 57.0557-26.6688 54.0774-26.6688C50.0631-26.6688 47.4517-30.0572 47.4517-35.7333C47.4517-41.2799 49.7394-44.474 53.6241-44.474C55.8255-44.474 57.3147-43.6539 58.7822-41.6899C59.9045-40.2008 61.2642-39.5102 63.0555-39.5102C65.3863-39.5102 66.9834-41.0856 66.9834-43.3733C66.9834-44.1503 66.8108-44.8841 66.3575-45.7258C64.5231-49.0062 59.8182-51.6824 53.581-51.6824C43.977-51.6824 38.1282-45.8121 38.1282-35.6038C38.1282-25.266 43.977-19.4604 53.8615-19.4604ZM87.9467-19.4604C90.8603-19.4604 92.5221-21.187 92.5221-24.2517L92.5221-31.0284L100.723-31.0284C103.054-31.0284 104.479-32.2802 104.479-34.46C104.479-36.6397 103.011-37.8915 100.723-37.8915L92.5221-37.8915L92.5221-43.8481L101.651-43.8481C104.068-43.8481 105.687-45.1646 105.687-47.4955C105.687-49.8264 104.112-51.1429 101.651-51.1429L87.9467-51.1429C85.0331-51.1429 83.3713-49.4163 83.3713-46.3517L83.3713-24.2517C83.3713-21.187 85.0331-19.4604 87.9467-19.4604ZM75.4795-19.4604C78.3931-19.4604 80.0549-21.187 80.0549-24.2517L80.0549-46.8912C80.0549-49.9559 78.3931-51.6824 75.4795-51.6824C72.5659-51.6824 70.9041-49.9559 70.9041-46.8912L70.9041-24.2517C70.9041-21.187 72.5659-19.4604 75.4795-19.4604Z"/>
  </g>
  <g id="Heavy-M" transform="matrix(1 0 0 1 2565.6 1126)">
   <path class="template-0 SFSymbolsPreview000000" d="M30.7128 12.3874L111.468 12.3874C117.305 12.3874 121.807 10.804 124.972 7.63727C128.137 4.4705 129.719-0.0130233 129.719-5.81331L129.719-64.5858C129.719-70.3861 128.137-74.87 124.972-78.0376C121.807-81.2052 117.305-82.789 111.468-82.789L30.7128-82.789C24.8985-82.789 20.4029-81.206 17.2261-78.0401C14.0493-74.8741 12.4609-70.3893 12.4609-64.5858L12.4609-5.81331C12.4609-0.01139 14.0493 4.47254 17.2261 7.63849C20.4029 10.8044 24.8985 12.3874 30.7128 12.3874ZM32.7568-2.72741C31.0531-2.72741 29.7609-3.14317 28.8804-3.97469C27.9998-4.80621 27.5595-6.12828 27.5595-7.9409L27.5595-62.4607C27.5595-64.3132 27.9998-65.6453 28.8804-66.4568C29.7609-67.2684 31.0531-67.6742 32.7568-67.6742L109.424-67.6742C111.153-67.6742 112.452-67.2684 113.319-66.4568C114.187-65.6453 114.621-64.3132 114.621-62.4607L114.621-7.9409C114.621-6.12828 114.187-4.80621 113.319-3.97469C112.452-3.14317 111.153-2.72741 109.424-2.72741L32.7568-2.72741ZM52.9647-18.4446C62.5179-18.4446 67.8055-24.3098 67.8055-31.9302C67.8055-35.085 66.0948-36.8623 63.0955-36.8623L56.8971-36.8623C54.7642-36.8623 53.409-35.7515 53.409-33.7297C53.409-31.708 54.7865-30.5972 56.8971-30.5972L58.741-30.5972L58.6966-30.1528C58.43-27.5757 56.2528-25.865 53.1868-25.865C49.0545-25.865 46.3663-29.353 46.3663-35.196C46.3663-40.9058 48.7213-44.1938 52.7203-44.1938C54.9864-44.1938 56.5194-43.3496 58.0301-41.3279C59.1854-39.7949 60.585-39.084 62.429-39.084C64.8284-39.084 66.4725-40.7058 66.4725-43.0608C66.4725-43.8606 66.2948-44.616 65.8282-45.4824C63.9398-48.8594 59.0965-51.6143 52.6759-51.6143C42.7894-51.6143 36.7686-45.5713 36.7686-35.0627C36.7686-24.4209 42.7894-18.4446 52.9647-18.4446ZM87.7349-18.4446C90.7342-18.4446 92.4448-20.2219 92.4448-23.3767L92.4448-30.3528L100.887-30.3528C103.287-30.3528 104.753-31.6414 104.753-33.8853C104.753-36.1292 103.242-37.4177 100.887-37.4177L92.4448-37.4177L92.4448-43.5496L101.843-43.5496C104.331-43.5496 105.997-44.9048 105.997-47.3042C105.997-49.7036 104.375-51.0588 101.843-51.0588L87.7349-51.0588C84.7356-51.0588 83.0249-49.2815 83.0249-46.1267L83.0249-23.3767C83.0249-20.2219 84.7356-18.4446 87.7349-18.4446ZM75.0597-18.4446C78.059-18.4446 79.7697-20.2219 79.7697-23.3767L79.7697-46.6821C79.7697-49.8369 78.059-51.6143 75.0597-51.6143C72.0605-51.6143 70.3498-49.8369 70.3498-46.6821L70.3498-23.3767C70.3498-20.2219 72.0605-18.4446 75.0597-18.4446Z"/>
  </g>
  <g id="Bold-M" transform="matrix(1 0 0 1 2269.26 1126)">
   <path class="template-0 SFSymbolsPreview000000" d="M29.6999 11.4744L111.73 11.4744C117.331 11.4744 121.605 9.99977 124.551 7.0505C127.496 4.10122 128.969-0.14037 128.969-5.67427L128.969-64.7279C128.969-70.2618 127.496-74.5044 124.551-77.4555C121.605-80.4066 117.331-81.8821 111.73-81.8821L29.6999-81.8821C24.1398-81.8821 19.8766-80.4084 16.9103-77.461C13.944-74.5135 12.4609-70.2692 12.4609-64.7279L12.4609-5.67427C12.4609-0.13669 13.944 4.10582 16.9103 7.05326C19.8766 10.0007 24.1398 11.4744 29.6999 11.4744ZM31.0806-1.1472C29.1226-1.1472 27.6287-1.64309 26.5989-2.63488C25.5692-3.62667 25.0543-5.14894 25.0543-7.2017L25.0543-63.206C25.0543-65.2966 25.5692-66.8283 26.5989-67.8012C27.6287-68.7741 29.1226-69.2605 31.0806-69.2605L110.35-69.2605C112.319-69.2605 113.816-68.7741 114.84-67.8012C115.864-66.8283 116.376-65.2966 116.376-63.206L116.376-7.2017C116.376-5.14894 115.864-3.62667 114.84-2.63488C113.816-1.64309 112.319-1.1472 110.35-1.1472L31.0806-1.1472ZM51.9912-17.4141C61.835-17.4141 67.3428-23.4141 67.3428-31.7344L67.3428-31.9688C67.3428-34.8281 65.7725-36.4453 63.0537-36.4453L55.6944-36.4453C53.7022-36.4453 52.4131-35.3906 52.4131-33.4922C52.4131-31.5938 53.7256-30.5391 55.6944-30.5391L59.0459-30.5391L59.0225-30.0234C58.7881-26.625 56.0694-24.3281 52.1787-24.3281C47.2334-24.3281 44.0459-28.3828 44.0459-35.0859C44.0459-41.6719 46.9287-45.4922 51.8037-45.4922C54.6397-45.4922 56.6553-44.3438 58.2725-41.7891C59.3272-40.2422 60.6162-39.5625 62.3506-39.5625C64.5537-39.5625 66.0537-41.0391 66.0537-43.2188C66.0537-43.9922 65.8897-44.7188 65.4444-45.5859C63.499-49.4297 58.4131-52.4062 51.7803-52.4062C41.5615-52.4062 35.2803-45.9375 35.2803-34.9688C35.2803-23.8594 41.5615-17.4141 51.9912-17.4141ZM87.125-17.4844C89.8438-17.4844 91.4141-19.1016 91.4141-21.9609L91.4141-30.6094L101.352-30.6094C103.578-30.6094 104.938-31.8281 104.938-33.8906C104.938-35.9766 103.531-37.1953 101.352-37.1953L91.4141-37.1953L91.4141-44.8828L102.453-44.8828C104.727-44.8828 106.273-46.1484 106.273-48.3516C106.273-50.5547 104.773-51.8203 102.453-51.8203L87.125-51.8203C84.4063-51.8203 82.8125-50.1797 82.8125-47.3203L82.8125-21.9609C82.8125-19.1016 84.4063-17.4844 87.125-17.4844ZM74.6675-17.4844C77.3862-17.4844 78.9566-19.1016 78.9566-21.9609L78.9566-47.8594C78.9566-50.7188 77.3862-52.3359 74.6675-52.3359C71.9487-52.3359 70.355-50.7188 70.355-47.8594L70.355-21.9609C70.355-19.1016 71.9487-17.4844 74.6675-17.4844Z"/>
  </g>
  <g id="Semibold-M" transform="matrix(1 0 0 1 1972.81 1126)">
   <path class="template-0 SFSymbolsPreview000000" d="M29.0015 10.845L111.911 10.845C117.35 10.845 121.466 9.44533 124.261 6.64599C127.055 3.84664 128.452-0.228157 128.452-5.57841L128.452-64.8259C128.452-70.1762 127.055-74.2522 124.261-77.0541C121.466-79.856 117.35-81.257 111.911-81.257L29.0015-81.257C23.6168-81.257 19.5138-79.8586 16.6926-77.0618C13.8715-74.265 12.4609-70.1864 12.4609-64.8259L12.4609-5.57841C12.4609-0.223063 13.8715 3.85301 16.6926 6.64981C19.5138 9.4466 23.6168 10.845 29.0015 10.845ZM29.925-0.0578093C27.7917-0.0578093 26.1587-0.608946 25.0262-1.71122C23.8936-2.81349 23.3273-4.47378 23.3273-6.69209L23.3273-63.7199C23.3273-65.9746 23.8936-67.644 25.0262-68.7281C26.1587-69.8122 27.7917-70.3542 29.925-70.3542L110.988-70.3542C113.123-70.3542 114.757-69.8122 115.888-68.7281C117.02-67.644 117.586-65.9746 117.586-63.7199L117.586-6.69209C117.586-4.47378 117.02-2.81349 115.888-1.71122C114.757-0.608946 113.123-0.0578093 110.988-0.0578093L29.925-0.0578093ZM51.4379-17.4141C61.3744-17.4141 67.0629-23.4443 67.0629-32.4043L67.0629-32.9414C67.0629-35.3584 65.6957-36.7744 63.3763-36.7744L54.7582-36.7744C52.9759-36.7744 51.8041-35.7734 51.8041-34.0889C51.8041-32.4043 53.0004-31.4033 54.7582-31.4033L59.8851-31.4033L59.8607-30.8418C59.7142-26.4717 56.3695-23.5176 51.5599-23.5176C45.7005-23.5176 41.9896-28.1807 41.9896-35.8223C41.9896-43.3174 45.4808-47.7363 51.2914-47.7363C54.7582-47.7363 57.3216-46.1982 59.055-43.0488C59.9584-41.5596 61.057-40.9004 62.6195-40.9004C64.5482-40.9004 65.8421-42.1943 65.8421-44.0742C65.8421-44.7822 65.7201-45.4902 65.305-46.3447C63.3275-50.666 58.0296-53.8398 51.267-53.8398C40.9154-53.8398 34.4701-47.0039 34.4701-35.7246C34.4701-24.2744 40.9154-17.4141 51.4379-17.4141ZM88.2402-17.5361C90.5595-17.5361 91.9267-18.9521 91.9267-21.3691L91.9267-31.8672L103.523-31.8672C105.452-31.8672 106.673-32.9658 106.673-34.7969C106.673-36.6035 105.428-37.7021 103.523-37.7021L91.9267-37.7021L91.9267-47.126L104.72-47.126C106.722-47.126 108.064-48.2734 108.064-50.1777C108.064-52.082 106.746-53.2295 104.72-53.2295L88.2402-53.2295C85.9209-53.2295 84.5537-51.8135 84.5537-49.3965L84.5537-21.3691C84.5537-18.9521 85.9209-17.5361 88.2402-17.5361ZM75.3078-17.5361C77.6271-17.5361 78.9943-18.9521 78.9943-21.3691L78.9943-49.8604C78.9943-52.3018 77.6271-53.7178 75.3078-53.7178C72.9884-53.7178 71.6213-52.3018 71.6213-49.8604L71.6213-21.3691C71.6213-18.9521 72.9884-17.5361 75.3078-17.5361Z"/>
  </g>
  <g id="Medium-M" transform="matrix(1 0 0 1 1676.29 1126)">
   <path class="template-0 SFSymbolsPreview000000" d="M28.472 10.3678L112.049 10.3678C117.364 10.3678 121.361 9.02496 124.041 6.33927C126.72 3.65361 128.06-0.294723 128.06-5.50573L128.06-64.9002C128.06-70.1112 126.72-74.0611 124.041-76.7498C121.361-79.4385 117.364-80.7829 112.049-80.7829L28.472-80.7829C23.2201-80.7829 19.2387-79.4416 16.5276-76.7591C13.8165-74.0765 12.4609-70.1235 12.4609-64.9002L12.4609-5.50573C12.4609-0.288557 13.8165 3.66132 16.5276 6.3439C19.2387 9.0265 23.2201 10.3678 28.472 10.3678ZM29.0488 0.768209C26.7826 0.768209 25.0442 0.175186 23.8336-1.01086C22.623-2.19691 22.0177-3.96185 22.0177-6.30569L22.0177-64.1095C22.0177-66.4887 22.623-68.2625 23.8336-69.4308C25.0442-70.5992 26.7826-71.1834 29.0488-71.1834L111.472-71.1834C113.733-71.1834 115.47-70.5992 116.683-69.4308C117.896-68.2625 118.503-66.4887 118.503-64.1095L118.503-6.30569C118.503-3.96185 117.896-2.19691 116.683-1.01086C115.47 0.175186 113.733 0.768209 111.472 0.768209L29.0488 0.768209ZM50.5422-16.4023C60.6775-16.4023 66.4797-22.5532 66.4797-31.6924L66.4797-32.2402C66.4797-34.7056 65.0852-36.1499 62.7195-36.1499L53.9289-36.1499C52.1111-36.1499 50.9158-35.1289 50.9158-33.4106C50.9158-31.6924 52.136-30.6714 53.9289-30.6714L59.1584-30.6714L59.1335-30.0986C58.9841-25.6411 55.5725-22.6279 50.6667-22.6279C44.6902-22.6279 40.905-27.3843 40.905-35.1787C40.905-42.8237 44.466-47.3311 50.3928-47.3311C53.9289-47.3311 56.5437-45.7622 58.3117-42.5498C59.2331-41.0308 60.3537-40.3584 61.9475-40.3584C63.9148-40.3584 65.2346-41.6782 65.2346-43.5957C65.2346-44.3179 65.1101-45.04 64.6867-45.9116C62.6697-50.3193 57.2659-53.5566 50.3679-53.5566C39.8093-53.5566 33.2351-46.584 33.2351-35.0791C33.2351-23.3999 39.8093-16.4023 50.5422-16.4023ZM88.1214-16.5269C90.4871-16.5269 91.8816-17.9712 91.8816-20.4365L91.8816-31.1445L103.71-31.1445C105.678-31.1445 106.923-32.2651 106.923-34.1328C106.923-35.9756 105.653-37.0962 103.71-37.0962L91.8816-37.0962L91.8816-46.7085L104.93-46.7085C106.972-46.7085 108.342-47.8789 108.342-49.8213C108.342-51.7637 106.997-52.9341 104.93-52.9341L88.1214-52.9341C85.7557-52.9341 84.3611-51.4897 84.3611-49.0244L84.3611-20.4365C84.3611-17.9712 85.7557-16.5269 88.1214-16.5269ZM74.9099-16.5269C77.2757-16.5269 78.6702-17.9712 78.6702-20.4365L78.6702-49.4976C78.6702-51.9878 77.2757-53.4321 74.9099-53.4321C72.5442-53.4321 71.1497-51.9878 71.1497-49.4976L71.1497-20.4365C71.1497-17.9712 72.5442-16.5269 74.9099-16.5269Z"/>
  </g>
  <g id="Regular-M" transform="matrix(1 0 0 1 1379.84 1126)">
   <path class="template-0 SFSymbolsPreview000000" d="M27.7814 9.74528L112.228 9.74528C117.382 9.74528 121.224 8.47659 123.754 5.93921C126.283 3.40183 127.548-0.38155 127.548-5.41093L127.548-64.9971C127.548-70.0265 126.283-73.8118 123.754-76.3529C121.224-78.894 117.382-80.1646 112.228-80.1646L27.7814-80.1646C22.7029-80.1646 18.8799-78.8978 16.3123-76.3642C13.7447-73.8307 12.4609-70.0416 12.4609-64.9971L12.4609-5.41093C12.4609-0.37399 13.7447 3.41128 16.3123 5.94488C18.8799 8.47848 22.7029 9.74528 27.7814 9.74528ZM27.906 1.84562C25.4663 1.84562 23.5904 1.19796 22.2781-0.0973549C20.9658-1.39267 20.3096-3.29411 20.3096-5.80168L20.3096-64.6177C20.3096-67.1592 20.9658-69.0692 22.2781-70.3475C23.5904-71.6258 25.4663-72.265 27.906-72.265L112.103-72.265C114.528-72.265 116.4-71.6258 117.72-70.3475C119.04-69.0692 119.7-67.1592 119.7-64.6177L119.7-5.80168C119.7-3.29411 119.04-1.39267 117.72-0.0973549C116.4 1.19796 114.528 1.84562 112.103 1.84562L27.906 1.84562ZM50.9738-16.37C61.4475-16.37 67.485-22.6962 67.485-32.54L67.485-33.3275C67.485-35.5325 66.225-36.845 64.125-36.845L54.15-36.845C52.47-36.845 51.315-35.8737 51.315-34.2725C51.315-32.6713 52.47-31.6738 54.15-31.6738L60.87-31.6738L60.8438-31.0438C60.7387-25.7413 56.775-22.1188 51.0525-22.1188C44.2275-22.1188 39.975-27.4475 39.975-36.1625C39.975-44.6938 44.0438-49.76 50.8688-49.76C54.99-49.76 58.0612-47.87 59.9513-44.1163C60.7912-42.5938 61.815-41.9375 63.285-41.9375C65.0963-41.9375 66.2775-43.1188 66.2775-44.9038C66.2775-45.5863 66.1725-46.2687 65.7787-47.1613C63.6788-52.0438 57.9825-55.5087 50.8425-55.5087C39.8963-55.5087 33.045-48.1063 33.045-36.0838C33.045-23.8775 39.9225-16.37 50.9738-16.37ZM87.2638-16.5538C89.39-16.5538 90.65-17.84 90.65-20.0712L90.65-32.4613L104.011-32.4613C105.796-32.4613 106.977-33.5113 106.977-35.2175C106.977-36.9238 105.796-37.9738 104.011-37.9738L90.65-37.9738L90.65-49.1562L105.376-49.1562C107.214-49.1562 108.474-50.2587 108.474-52.0175C108.474-53.7763 107.24-54.8788 105.376-54.8788L87.2638-54.8788C85.1637-54.8788 83.8775-53.5663 83.8775-51.3613L83.8775-20.0712C83.8775-17.84 85.1637-16.5538 87.2638-16.5538ZM75.1037-16.5538C77.23-16.5538 78.49-17.84 78.49-20.0712L78.49-51.8075C78.49-54.0388 77.23-55.325 75.1037-55.325C73.0038-55.325 71.7175-54.0388 71.7175-51.8075L71.7175-20.0712C71.7175-17.84 73.0038-16.5538 75.1037-16.5538Z"/>
  </g>
  <g id="Light-M" transform="matrix(1 0 0 1 1083.52 1126)">
   <path class="template-0 SFSymbolsPreview000000" d="M26.8614 8.97252L112.357 8.97252C117.18 8.97252 120.785 7.76823 123.174 5.35964C125.563 2.95105 126.757-0.60234 126.757-5.30054L126.757-65.1259C126.757-69.8241 125.563-73.3824 123.174-75.8009C120.785-78.2194 117.18-79.4287 112.357-79.4287L26.8614-79.4287C22.1019-79.4287 18.5119-78.2294 16.0915-75.8307C13.6711-73.432 12.4609-69.8638 12.4609-65.1259L12.4609-5.30054C12.4609-0.582513 13.6711 2.97584 16.0915 5.37451C18.5119 7.77318 22.1019 8.97252 26.8614 8.97252ZM26.986 2.91277C24.2275 2.91277 22.1215 2.19151 20.6682 0.748999C19.2148-0.693514 18.4881-2.81574 18.4881-5.61769L18.4881-64.8385C18.4881-67.6622 19.2148-69.7898 20.6682-71.2214C22.1215-72.6531 24.2275-73.3689 26.986-73.3689L112.232-73.3689C114.951-73.3689 117.047-72.6531 118.52-71.2214C119.993-69.7898 120.73-67.6622 120.73-64.8385L120.73-5.61769C120.73-2.81574 119.993-0.693514 118.52 0.748999C117.047 2.19151 114.951 2.91277 112.232 2.91277L26.986 2.91277ZM49.8164-14.34C60.6239-14.34 66.9214-20.8575 66.9214-31.335L66.9214-32.325C66.9214-34.3325 65.7389-35.5425 63.8414-35.5425L52.8414-35.5425C51.2464-35.5425 50.1464-34.5525 50.1464-33.04C50.1464-31.555 51.2464-30.565 52.8414-30.565L60.8439-30.565L60.8439-29.8775C60.7614-23.855 56.3064-19.73 49.8714-19.73C42.3089-19.73 37.6064-25.5875 37.6064-35.075C37.6064-44.3975 42.1714-49.9525 49.7614-49.9525C54.3539-49.9525 57.8739-47.78 59.8814-43.5725C60.6514-42.0325 61.5589-41.3725 62.9614-41.3725C64.6389-41.3725 65.7114-42.4725 65.7114-44.095C65.7114-44.7825 65.6289-45.47 65.2714-46.35C63.0714-51.6575 57.1314-55.3425 49.7339-55.3425C38.4314-55.3425 31.3089-47.5325 31.3089-35.02C31.3089-22.2875 38.4589-14.34 49.8164-14.34ZM86.817-14.56C88.7145-14.56 89.897-15.77 89.897-17.75L89.897-31.61L104.61-31.61C106.26-31.61 107.387-32.6275 107.387-34.2225C107.387-35.79 106.26-36.8075 104.61-36.8075L89.897-36.8075L89.897-49.3475L106.067-49.3475C107.772-49.3475 108.955-50.3925 108.955-52.015C108.955-53.6375 107.8-54.6825 106.067-54.6825L86.817-54.6825C84.892-54.6825 83.737-53.4725 83.737-51.4925L83.737-17.75C83.737-15.77 84.892-14.56 86.817-14.56ZM74.683-14.56C76.5805-14.56 77.763-15.77 77.763-17.75L77.763-51.9325C77.763-53.9125 76.5805-55.1225 74.683-55.1225C72.758-55.1225 71.603-53.9125 71.603-51.9325L71.603-17.75C71.603-15.77 72.758-14.56 74.683-14.56Z"/>
  </g>
  <g id="Thin-M" transform="matrix(1 0 0 1 787.336 1126)">
   <path class="template-0 SFSymbolsPreview000000" d="M25.6447 7.95048L112.527 7.95048C116.912 7.95048 120.205 6.83136 122.407 4.59311C124.61 2.35486 125.711-0.89435 125.711-5.15453L125.711-65.2962C125.711-69.5564 124.61-72.8146 122.407-75.0709C120.205-77.3272 116.912-78.4553 112.527-78.4553L25.6447-78.4553C21.307-78.4553 18.0252-77.3452 15.7995-75.125C13.5738-72.9048 12.4609-69.6285 12.4609-65.2962L12.4609-5.15453C12.4609-0.858297 13.5738 2.39993 15.7995 4.62015C18.0252 6.84037 21.307 7.95048 25.6447 7.95048ZM25.7693 4.32415C22.589 4.32415 20.1788 3.50556 18.5389 1.86837C16.899 0.231185 16.079-2.18305 16.079-5.37435L16.079-65.1305C16.079-68.3273 16.899-70.7429 18.5389-72.3773C20.1788-74.0118 22.589-74.829 25.7693-74.829L112.402-74.829C115.511-74.829 117.903-74.0118 119.579-72.3773C121.255-70.7429 122.093-68.3273 122.093-65.1305L122.093-5.37435C122.093-2.18305 121.255 0.231185 119.579 1.86837C117.903 3.50556 115.511 4.32415 112.402 4.32415L25.7693 4.32415ZM49.522-14.3531C60.0689-14.3531 66.3689-20.7656 66.3689-31.4813L66.3689-33.3938C66.3689-34.6313 65.6376-35.3906 64.4564-35.3906L51.4064-35.3906C50.3095-35.3906 49.5501-34.7156 49.5501-33.7031C49.5501-32.6906 50.3095-32.0156 51.4064-32.0156L62.5439-32.0156L62.5439-30.5813C62.5439-22.9313 57.3689-17.925 49.522-17.925C40.8314-17.925 35.2345-24.8156 35.2345-35.5312C35.2345-46.1063 40.7189-52.6594 49.522-52.6594C55.2876-52.6594 59.7876-49.65 61.7564-44.4188C62.2064-43.2656 62.797-42.7875 63.7533-42.7875C64.822-42.7875 65.497-43.4906 65.497-44.5594C65.497-45.0938 65.4126-45.6562 65.1314-46.4156C62.9939-52.2938 56.947-56.2313 49.522-56.2313C38.4408-56.2313 31.297-48.1031 31.297-35.5312C31.297-22.7344 38.5251-14.3531 49.522-14.3531ZM84.6808-14.6063C85.862-14.6063 86.5933-15.3656 86.5933-16.6031L86.5933-33.4219L103.75-33.4219C104.846-33.4219 105.578-34.125 105.578-35.1375C105.578-36.1781 104.846-36.8531 103.75-36.8531L86.5933-36.8531L86.5933-52.0969L105.353-52.0969C106.478-52.0969 107.209-52.8281 107.209-53.8406C107.209-54.8813 106.478-55.5844 105.353-55.5844L84.6808-55.5844C83.4995-55.5844 82.7683-54.825 82.7683-53.5875L82.7683-16.6031C82.7683-15.3656 83.4995-14.6063 84.6808-14.6063ZM73.8655-14.6063C75.0467-14.6063 75.778-15.3656 75.778-16.6031L75.778-53.9813C75.778-55.2188 75.0467-55.9781 73.8655-55.9781C72.6842-55.9781 71.953-55.2188 71.953-53.9813L71.953-16.6031C71.953-15.3656 72.6842-14.6063 73.8655-14.6063Z"/>
  </g>
  <g id="Ultralight-M" transform="matrix(1 0 0 1 490.893 1126)">
   <path class="template-0 SFSymbolsPreview000000" d="M25.0215 7.427L112.614 7.427C116.775 7.427 119.908 6.3515 122.015 4.2005C124.122 2.0495 125.175-1.04392 125.175-5.07975L125.175-65.3835C125.175-69.4193 124.122-72.5238 122.015-74.697C119.908-76.8702 116.775-77.9568 112.614-77.9568L25.0215-77.9568C20.8998-77.9568 17.7759-76.8924 15.6499-74.7635C13.5239-72.6347 12.4609-69.508 12.4609-65.3835L12.4609-5.07975C12.4609-0.999557 13.5239 2.10495 15.6499 4.23377C17.7759 6.36259 20.8998 7.427 25.0215 7.427ZM25.1461 5.04705C21.7498 5.04705 19.1838 4.1786 17.4483 2.44171C15.7128 0.704813 14.8451-1.85899 14.8451-5.24971L14.8451-65.2801C14.8451-68.668 15.7128-71.2311 17.4483-72.9694C19.1838-74.7077 21.7498-75.5768 25.1461-75.5768L112.49-75.5768C115.797-75.5768 118.341-74.7077 120.121-72.9694C121.901-71.2311 122.791-68.668 122.791-65.2801L122.791-5.24971C122.791-1.85899 121.901 0.704813 120.121 2.44171C118.341 4.1786 115.797 5.04705 112.49 5.04705L25.1461 5.04705ZM50.1053-13.3963C60.5128-13.3963 66.8378-19.8362 66.8378-30.4162L66.8378-33.32C66.8378-34.0675 66.4065-34.5275 65.7165-34.5275L50.9103-34.5275C50.2203-34.5275 49.789-34.0962 49.789-33.4925C49.789-32.8887 50.2203-32.4575 50.9103-32.4575L64.5665-32.4575L64.5665-30.0712C64.5665-21.13 59.0178-15.5237 50.1053-15.5237C40.6465-15.5237 34.264-23.3438 34.264-35.0162C34.264-46.4875 40.5028-53.9625 50.1053-53.9625C56.8328-53.9625 62.2378-50.1675 64.049-44.1012C64.3078-43.3825 64.624-43.0662 65.2278-43.0662C65.889-43.0662 66.234-43.4975 66.234-44.13C66.234-44.5612 66.1478-45.05 65.9465-45.6537C63.7903-51.95 57.6378-56.09 50.1053-56.09C39.1803-56.09 31.9353-47.695 31.9353-34.9875C31.9353-22.1075 39.2953-13.3963 50.1053-13.3963ZM84.0423-13.5687C84.7323-13.5687 85.1923-14.0287 85.1923-14.7762L85.1923-33.9812L104.254-33.9812C104.944-33.9812 105.375-34.4125 105.375-35.0162C105.375-35.62 104.944-36.0512 104.254-36.0512L85.1923-36.0512L85.1923-53.3875L105.979-53.3875C106.669-53.3875 107.1-53.8187 107.1-54.4512C107.1-55.055 106.669-55.4862 105.979-55.4862L84.0423-55.4862C83.3523-55.4862 82.9211-55.0262 82.9211-54.2787L82.9211-14.7762C82.9211-14.0287 83.3523-13.5687 84.0423-13.5687ZM74.1319-13.5687C74.8219-13.5687 75.2819-14.0287 75.2819-14.7762L75.2819-54.71C75.2819-55.4575 74.8219-55.9175 74.1319-55.9175C73.4419-55.9175 73.0107-55.4575 73.0107-54.71L73.0107-14.7762C73.0107-14.0287 73.4419-13.5687 74.1319-13.5687Z"/>
  </g>
  <g id="Black-S" transform="matrix(1 0 0 1 2874.65 696)">
   <path class="template-0 SFSymbolsPreview000000" d="M27.6953 2.92969L89.8047 2.92969C94.5898 2.92969 98.3251 1.58692 101.011-1.09863C103.696-3.78418 105.039-7.51953 105.039-12.3047L105.039-58.1055C105.039-62.8906 103.696-66.626 101.011-69.3115C98.3251-71.997 94.5898-73.3398 89.8047-73.3398L27.6953-73.3398C22.9101-73.3398 19.1748-71.997 16.4892-69.3115C13.8037-66.626 12.4609-62.8906 12.4609-58.1055L12.4609-12.3047C12.4609-7.51953 13.8037-3.78418 16.4892-1.09863C19.1748 1.58692 22.9101 2.92969 27.6953 2.92969ZM29.9414-11.2305C28.8346-11.2305 28.0045-11.4828 27.4512-11.9873C26.8978-12.4918 26.6211-13.3463 26.6211-14.5508L26.6211-55.8594C26.6211-57.0963 26.8978-57.959 27.4512-58.4473C28.0045-58.9356 28.8346-59.1797 29.9414-59.1797L87.5586-59.1797C88.6979-59.1797 89.5361-58.9356 90.0732-58.4473C90.6103-57.959 90.8789-57.0963 90.8789-55.8594L90.8789-14.5508C90.8789-13.3463 90.6103-12.4918 90.0732-11.9873C89.5361-11.4828 88.6979-11.2305 87.5586-11.2305L29.9414-11.2305ZM45.171-22.585C52.3096-22.585 56.2608-26.9678 56.2608-32.6621C56.2608-35.0195 54.9825-36.3477 52.7413-36.3477L48.1095-36.3477C46.5157-36.3477 45.503-35.5176 45.503-34.0068C45.503-32.4961 46.5323-31.666 48.1095-31.666L49.4874-31.666L49.4542-31.334C49.255-29.4082 47.628-28.1299 45.337-28.1299C42.2491-28.1299 40.2403-30.7363 40.2403-35.1025C40.2403-39.3691 42.0001-41.8262 44.9884-41.8262C46.6817-41.8262 47.8272-41.1953 48.9561-39.6846C49.8194-38.5391 50.8653-38.0078 52.2432-38.0078C54.0362-38.0078 55.2647-39.2197 55.2647-40.9795C55.2647-41.5771 55.1319-42.1416 54.7833-42.7891C53.3721-45.3125 49.753-47.3711 44.9552-47.3711C37.5675-47.3711 33.0684-42.8555 33.0684-35.0029C33.0684-27.0508 37.5675-22.585 45.171-22.585ZM71.3474-22.585C73.5886-22.585 74.8669-23.9131 74.8669-26.2705L74.8669-31.4834L81.1755-31.4834C82.9685-31.4834 84.0642-32.4463 84.0642-34.123C84.0642-35.7998 82.9353-36.7627 81.1755-36.7627L74.8669-36.7627L74.8669-41.3447L81.8894-41.3447C83.7488-41.3447 84.9939-42.3574 84.9939-44.1504C84.9939-45.9434 83.782-46.9561 81.8894-46.9561L71.3474-46.9561C69.1062-46.9561 67.8279-45.6279 67.8279-43.2705L67.8279-26.2705C67.8279-23.9131 69.1062-22.585 71.3474-22.585ZM61.7787-22.585C64.0199-22.585 65.2982-23.9131 65.2982-26.2705L65.2982-43.6855C65.2982-46.043 64.0199-47.3711 61.7787-47.3711C59.5375-47.3711 58.2592-46.043 58.2592-43.6855L58.2592-26.2705C58.2592-23.9131 59.5375-22.585 61.7787-22.585Z"/>
  </g>
  <g id="Heavy-S" transform="matrix(1 0 0 1 2578.17 696)">
   <path class="template-0 SFSymbolsPreview000000" d="M27.0384 2.33042L89.9891 2.33042C94.6359 2.33042 98.2272 1.06255 100.763-1.47318C103.299-4.00891 104.566-7.58868 104.566-12.2125L104.566-58.1977C104.566-62.8215 103.299-66.4013 100.763-68.937C98.2272-71.4727 94.6359-72.7406 89.9891-72.7406L27.0384-72.7406C22.4069-72.7406 18.8194-71.4727 16.276-68.937C13.7326-66.4013 12.4609-62.8215 12.4609-58.1977L12.4609-12.2125C12.4609-7.58868 13.7326-4.00891 16.276-1.47318C18.8194 1.06255 22.4069 2.33042 27.0384 2.33042ZM28.7774-10.1587C27.517-10.1587 26.562-10.4628 25.9126-11.0711C25.2632-11.6794 24.9385-12.6587 24.9385-14.0091L24.9385-56.401C24.9385-57.784 25.2632-58.7715 25.9126-59.3635C26.562-59.9555 27.517-60.2515 28.7774-60.2515L88.25-60.2515C89.5353-60.2515 90.4965-59.9555 91.1335-59.3635C91.7705-58.7715 92.089-57.784 92.089-56.401L92.089-14.0091C92.089-12.6587 91.7705-11.6794 91.1335-11.0711C90.4965-10.4628 89.5353-10.1587 88.25-10.1587L28.7774-10.1587ZM44.4135-22.5728C51.7621-22.5728 55.8295-27.0845 55.8295-32.9463C55.8295-35.373 54.5136-36.7402 52.2065-36.7402L47.4384-36.7402C45.7978-36.7402 44.7553-35.8857 44.7553-34.3306C44.7553-32.7754 45.8149-31.9209 47.4384-31.9209L48.8569-31.9209L48.8227-31.5791C48.6176-29.5967 46.9428-28.2808 44.5844-28.2808C41.4057-28.2808 39.3378-30.9639 39.3378-35.4585C39.3378-39.8506 41.1493-42.3799 44.2255-42.3799C45.9687-42.3799 47.1479-41.7305 48.31-40.1753C49.1987-38.9961 50.2753-38.4492 51.6938-38.4492C53.5395-38.4492 54.8041-39.6968 54.8041-41.5083C54.8041-42.1235 54.6674-42.7046 54.3085-43.3711C52.8559-45.9688 49.1303-48.0879 44.1913-48.0879C36.5863-48.0879 31.955-43.4395 31.955-35.356C31.955-27.1699 36.5863-22.5728 44.4135-22.5728ZM71.1598-22.5728C73.4669-22.5728 74.7829-23.9399 74.7829-26.3667L74.7829-31.7329L81.277-31.7329C83.1227-31.7329 84.2506-32.7241 84.2506-34.4502C84.2506-36.1763 83.0885-37.1675 81.277-37.1675L74.7829-37.1675L74.7829-41.8843L82.0119-41.8843C83.9259-41.8843 85.2077-42.9268 85.2077-44.7725C85.2077-46.6182 83.9601-47.6606 82.0119-47.6606L71.1598-47.6606C68.8527-47.6606 67.5368-46.2935 67.5368-43.8667L67.5368-26.3667C67.5368-23.9399 68.8527-22.5728 71.1598-22.5728ZM61.4097-22.5728C63.7168-22.5728 65.0327-23.9399 65.0327-26.3667L65.0327-44.2939C65.0327-46.7207 63.7168-48.0879 61.4097-48.0879C59.1026-48.0879 57.7867-46.7207 57.7867-44.2939L57.7867-26.3667C57.7867-23.9399 59.1026-22.5728 61.4097-22.5728Z"/>
  </g>
  <g id="Bold-S" transform="matrix(1 0 0 1 2281.73 696)">
   <path class="template-0 SFSymbolsPreview000000" d="M26.3037 1.66016L90.1953 1.66016C94.6875 1.66016 98.1176 0.476077 100.486-1.89209C102.854-4.26026 104.038-7.66603 104.038-12.1094L104.038-58.3008C104.038-62.7441 102.854-66.1499 100.486-68.5181C98.1176-70.8862 94.6875-72.0703 90.1953-72.0703L26.3037-72.0703C21.844-72.0703 18.422-70.8862 16.0376-68.5181C13.6531-66.1499 12.4609-62.7441 12.4609-58.3008L12.4609-12.1094C12.4609-7.66603 13.6531-4.26026 16.0376-1.89209C18.422 0.476077 21.844 1.66016 26.3037 1.66016ZM27.4756-8.95996C26.0432-8.95996 24.9487-9.32211 24.1919-10.0464C23.435-10.7707 23.0566-11.8896 23.0566-13.4033L23.0566-57.0068C23.0566-58.5531 23.435-59.6802 24.1919-60.3882C24.9487-61.0962 26.0432-61.4502 27.4756-61.4502L89.0234-61.4502C90.472-61.4502 91.5706-61.0962 92.3193-60.3882C93.068-59.6802 93.4424-58.5531 93.4424-57.0068L93.4424-13.4033C93.4424-11.8896 93.068-10.7707 92.3193-10.0464C91.5706-9.32211 90.472-8.95996 89.0234-8.95996L27.4756-8.95996ZM43.8635-22.5728C51.2121-22.5728 55.2795-27.0845 55.2795-32.9463C55.2795-35.373 53.9636-36.7402 51.6565-36.7402L46.8884-36.7402C45.2478-36.7402 44.2053-35.8857 44.2053-34.3306C44.2053-32.7754 45.2649-31.9209 46.8884-31.9209L48.3069-31.9209L48.2727-31.5791C48.0676-29.5967 46.3928-28.2808 44.0344-28.2808C40.8557-28.2808 38.7878-30.9639 38.7878-35.4585C38.7878-39.8506 40.5993-42.3799 43.6755-42.3799C45.4187-42.3799 46.5979-41.7305 47.76-40.1753C48.6487-38.9961 49.7253-38.4492 51.1438-38.4492C52.9895-38.4492 54.2541-39.6968 54.2541-41.5083C54.2541-42.1235 54.1174-42.7046 53.7585-43.3711C52.3059-45.9688 48.5803-48.0879 43.6413-48.0879C36.0363-48.0879 31.405-43.4395 31.405-35.356C31.405-27.1699 36.0363-22.5728 43.8635-22.5728ZM70.6098-22.5728C72.9169-22.5728 74.2329-23.9399 74.2329-26.3667L74.2329-31.7329L80.727-31.7329C82.5727-31.7329 83.7006-32.7241 83.7006-34.4502C83.7006-36.1763 82.5385-37.1675 80.727-37.1675L74.2329-37.1675L74.2329-41.8843L81.4619-41.8843C83.3759-41.8843 84.6577-42.9268 84.6577-44.7725C84.6577-46.6182 83.4101-47.6606 81.4619-47.6606L70.6098-47.6606C68.3027-47.6606 66.9868-46.2935 66.9868-43.8667L66.9868-26.3667C66.9868-23.9399 68.3027-22.5728 70.6098-22.5728ZM60.8597-22.5728C63.1668-22.5728 64.4827-23.9399 64.4827-26.3667L64.4827-44.2939C64.4827-46.7207 63.1668-48.0879 60.8597-48.0879C58.5526-48.0879 57.2367-46.7207 57.2367-44.2939L57.2367-26.3667C57.2367-23.9399 58.5526-22.5728 60.8597-22.5728Z"/>
  </g>
  <g id="Semibold-S" transform="matrix(1 0 0 1 1985.2 696)">
   <path class="template-0 SFSymbolsPreview000000" d="M25.7972 1.19805L90.3375 1.19805C94.723 1.19805 98.0421 0.07173 100.295-2.18091C102.547-4.43354 103.673-7.71934 103.673-12.0383L103.673-58.3719C103.673-62.6908 102.547-65.9766 100.295-68.2292C98.0421-70.4819 94.723-71.6082 90.3375-71.6082L25.7972-71.6082C21.456-71.6082 18.148-70.4819 15.8732-68.2292C13.5983-65.9766 12.4609-62.6908 12.4609-58.3719L12.4609-12.0383C12.4609-7.71934 13.5983-4.43354 15.8732-2.18091C18.148 0.07173 21.456 1.19805 25.7972 1.19805ZM26.578-8.1335C25.0272-8.1335 23.8363-8.53563 23.0055-9.33989C22.1746-10.1442 21.7592-11.3594 21.7592-12.9856L21.7592-57.4245C21.7592-59.0833 22.1746-60.3067 23.0055-61.0947C23.8363-61.8827 25.0272-62.2767 26.578-62.2767L89.5566-62.2767C91.1177-62.2767 92.3111-61.8827 93.1369-61.0947C93.9626-60.3067 94.3755-59.0833 94.3755-57.4245L94.3755-12.9856C94.3755-11.3594 93.9626-10.1442 93.1369-9.33989C92.3111-8.53563 91.1177-8.1335 89.5566-8.1335L26.578-8.1335ZM43.7542-21.5361C51.5471-21.5361 55.9075-26.2861 55.9075-32.873L55.9075-33.0586C55.9075-35.3223 54.6643-36.6025 52.512-36.6025L46.6858-36.6025C45.1087-36.6025 44.0882-35.7676 44.0882-34.2646C44.0882-32.7617 45.1272-31.9268 46.6858-31.9268L49.3391-31.9268L49.3206-31.5186C49.135-28.8281 46.9827-27.0098 43.9026-27.0098C39.9876-27.0098 37.4641-30.2197 37.4641-35.5264C37.4641-40.7402 39.7464-43.7646 43.6057-43.7646C45.8508-43.7646 47.4465-42.8555 48.7268-40.833C49.5618-39.6084 50.5823-39.0703 51.9553-39.0703C53.6995-39.0703 54.887-40.2393 54.887-41.9648C54.887-42.5771 54.7571-43.1523 54.4046-43.8389C52.8645-46.8818 48.8382-49.2383 43.5872-49.2383C35.4973-49.2383 30.5247-44.1172 30.5247-35.4336C30.5247-26.6387 35.4973-21.5361 43.7542-21.5361ZM71.5684-21.5918C73.7208-21.5918 74.9639-22.8721 74.9639-25.1357L74.9639-31.9824L82.8311-31.9824C84.5938-31.9824 85.67-32.9473 85.67-34.5801C85.67-36.2314 84.5567-37.1963 82.8311-37.1963L74.9639-37.1963L74.9639-43.2822L83.7032-43.2822C85.503-43.2822 86.7276-44.2842 86.7276-46.0283C86.7276-47.7725 85.5401-48.7744 83.7032-48.7744L71.5684-48.7744C69.4161-48.7744 68.1543-47.4756 68.1543-45.2119L68.1543-25.1357C68.1543-22.8721 69.4161-21.5918 71.5684-21.5918ZM61.7062-21.5918C63.8586-21.5918 65.1017-22.8721 65.1017-25.1357L65.1017-45.6387C65.1017-47.9023 63.8586-49.1826 61.7062-49.1826C59.5539-49.1826 58.2921-47.9023 58.2921-45.6387L58.2921-25.1357C58.2921-22.8721 59.5539-21.5918 61.7062-21.5918Z"/>
  </g>
  <g id="Medium-S" transform="matrix(1 0 0 1 1688.63 696)">
   <path class="template-0 SFSymbolsPreview000000" d="M25.4131 0.847656L90.4453 0.847656C94.7499 0.847656 97.9848-0.234863 100.15-2.3999C102.315-4.56494 103.397-7.75977 103.397-11.9844L103.397-58.4258C103.397-62.6504 102.315-65.8452 100.15-68.0103C97.9848-70.1753 94.7499-71.2578 90.4453-71.2578L25.4131-71.2578C21.1617-71.2578 17.9402-70.1753 15.7485-68.0103C13.5568-65.8452 12.4609-62.6504 12.4609-58.4258L12.4609-11.9844C12.4609-7.75977 13.5568-4.56494 15.7485-2.3999C17.9402-0.234863 21.1617 0.847656 25.4131 0.847656ZM25.8974-7.50684C24.2568-7.50684 22.9929-7.93929 22.1059-8.8042C21.2189-9.66913 20.7754-10.9574 20.7754-12.6689L20.7754-57.7412C20.7754-59.4853 21.2189-60.7817 22.1059-61.6304C22.9929-62.479 24.2568-62.9033 25.8974-62.9033L89.9609-62.9033C91.6074-62.9033 92.8727-62.479 93.7568-61.6304C94.6409-60.7817 95.083-59.4853 95.083-57.7412L95.083-12.6689C95.083-10.9574 94.6409-9.66913 93.7568-8.8042C92.8727-7.93929 91.6074-7.50684 89.9609-7.50684L25.8974-7.50684ZM42.3352-21.543C50.0857-21.543 54.5227-26.2466 54.5227-33.2354L54.5227-33.6543C54.5227-35.5396 53.4563-36.644 51.6472-36.644L44.9251-36.644C43.5349-36.644 42.6209-35.8633 42.6209-34.5493C42.6209-33.2354 43.554-32.4546 44.9251-32.4546L48.9241-32.4546L48.905-32.0166C48.7908-28.6079 46.1819-26.3037 42.4304-26.3037C37.8601-26.3037 34.9656-29.9409 34.9656-35.9014C34.9656-41.7476 37.6887-45.1943 42.221-45.1943C44.9251-45.1943 46.9246-43.9946 48.2766-41.5381C48.9812-40.3765 49.8381-39.8623 51.0569-39.8623C52.5613-39.8623 53.5706-40.8716 53.5706-42.3379C53.5706-42.8901 53.4753-43.4424 53.1516-44.1089C51.6091-47.4795 47.4768-49.9551 42.2019-49.9551C34.1277-49.9551 29.1003-44.623 29.1003-35.8252C29.1003-26.894 34.1277-21.543 42.3352-21.543ZM71.0722-21.6382C72.8813-21.6382 73.9477-22.7427 73.9477-24.6279L73.9477-32.8164L82.9931-32.8164C84.4975-32.8164 85.4497-33.6733 85.4497-35.1016C85.4497-36.5107 84.4785-37.3677 82.9931-37.3677L73.9477-37.3677L73.9477-44.7183L83.9262-44.7183C85.4878-44.7183 86.5351-45.6133 86.5351-47.0986C86.5351-48.584 85.5068-49.479 83.9262-49.479L71.0722-49.479C69.2631-49.479 68.1967-48.3745 68.1967-46.4893L68.1967-24.6279C68.1967-22.7427 69.2631-21.6382 71.0722-21.6382ZM60.9693-21.6382C62.7784-21.6382 63.8448-22.7427 63.8448-24.6279L63.8448-46.8511C63.8448-48.7554 62.7784-49.8599 60.9693-49.8599C59.1603-49.8599 58.0939-48.7554 58.0939-46.8511L58.0939-24.6279C58.0939-22.7427 59.1603-21.6382 60.9693-21.6382Z"/>
  </g>
  <g id="Regular-S" transform="matrix(1 0 0 1 1392.09 696)">
   <path class="template-0 SFSymbolsPreview000000" d="M24.9121 0.390625L90.5859 0.390625C94.7851 0.390625 97.9101-0.634767 99.9609-2.68555C102.012-4.73633 103.037-7.81251 103.037-11.9141L103.037-58.4961C103.037-62.5976 102.012-65.6738 99.9609-67.7246C97.9101-69.7754 94.7851-70.8008 90.5859-70.8008L24.9121-70.8008C20.7779-70.8008 17.6692-69.7754 15.5859-67.7246C13.5026-65.6738 12.4609-62.5976 12.4609-58.4961L12.4609-11.9141C12.4609-7.81251 13.5026-4.73633 15.5859-2.68555C17.6692-0.634767 20.7779 0.390625 24.9121 0.390625ZM25.0098-6.68945C23.2519-6.68945 21.8928-7.16146 20.9326-8.10547C19.9723-9.04948 19.4922-10.433 19.4922-12.2559L19.4922-58.1543C19.4922-60.0098 19.9723-61.4014 20.9326-62.3291C21.8928-63.2568 23.2519-63.7207 25.0098-63.7207L90.4883-63.7207C92.2461-63.7207 93.6051-63.2568 94.5654-62.3291C95.5256-61.4014 96.0058-60.0098 96.0058-58.1543L96.0058-12.2559C96.0058-10.433 95.5256-9.04948 94.5654-8.10547C93.6051-7.16146 92.2461-6.68945 90.4883-6.68945L25.0098-6.68945ZM42.8066-20.5078C50.9893-20.5078 55.7061-25.4502 55.7061-33.1406L55.7061-33.7559C55.7061-35.4785 54.7217-36.5039 53.0811-36.5039L45.2881-36.5039C43.9756-36.5039 43.0732-35.7451 43.0732-34.4941C43.0732-33.2432 43.9756-32.4639 45.2881-32.4639L50.5381-32.4639L50.5176-31.9717C50.4356-27.8291 47.3389-24.999 42.8682-24.999C37.5361-24.999 34.2139-29.1621 34.2139-35.9707C34.2139-42.6357 37.3926-46.5938 42.7246-46.5938C45.9443-46.5938 48.3438-45.1172 49.8203-42.1846C50.4766-40.9951 51.2764-40.4824 52.4248-40.4824C53.8399-40.4824 54.7627-41.4053 54.7627-42.7998C54.7627-43.333 54.6807-43.8662 54.3731-44.5635C52.7324-48.3779 48.2822-51.085 42.7041-51.085C34.1524-51.085 28.7998-45.3018 28.7998-35.9092C28.7998-26.373 34.1729-20.5078 42.8066-20.5078ZM71.1582-20.6514C72.8193-20.6514 73.8037-21.6562 73.8037-23.3994L73.8037-33.0791L84.2422-33.0791C85.6367-33.0791 86.5596-33.8994 86.5596-35.2324C86.5596-36.5654 85.6367-37.3857 84.2422-37.3857L73.8037-37.3857L73.8037-46.1221L85.3086-46.1221C86.7441-46.1221 87.7285-46.9834 87.7285-48.3574C87.7285-49.7314 86.7647-50.5928 85.3086-50.5928L71.1582-50.5928C69.5176-50.5928 68.5127-49.5674 68.5127-47.8447L68.5127-23.3994C68.5127-21.6562 69.5176-20.6514 71.1582-20.6514ZM61.6582-20.6514C63.3193-20.6514 64.3037-21.6562 64.3037-23.3994L64.3037-48.1934C64.3037-49.9365 63.3193-50.9414 61.6582-50.9414C60.0176-50.9414 59.0127-49.9365 59.0127-48.1934L59.0127-23.3994C59.0127-21.6562 60.0176-20.6514 61.6582-20.6514Z"/>
  </g>
  <g id="Light-S" transform="matrix(1 0 0 1 1095.73 696)">
   <path class="template-0 SFSymbolsPreview000000" d="M24.0983-0.292969L90.6999-0.292969C94.6061-0.292969 97.5222-1.26139 99.4482-3.19824C101.374-5.13509 102.337-8.00781 102.337-11.8164L102.337-58.61C102.337-62.4186 101.374-65.294 99.4482-67.2363C97.5222-69.1786 94.6061-70.1497 90.6999-70.1497L24.0983-70.1497C20.2463-70.1497 17.3437-69.184 15.3906-67.2526C13.4375-65.3212 12.4609-62.4403 12.4609-58.61L12.4609-11.8164C12.4609-7.99696 13.4375-5.12153 15.3906-3.1901C17.3437-1.25868 20.2463-0.292969 24.0983-0.292969ZM24.196-5.74544C22.156-5.74544 20.5935-6.28255 19.5085-7.35677C18.4233-8.43099 17.8808-10.0098 17.8808-12.0931L17.8808-58.3496C17.8808-60.4547 18.4233-62.0389 19.5085-63.1022C20.5935-64.1656 22.156-64.6973 24.196-64.6973L90.6022-64.6973C92.6204-64.6973 94.1774-64.1656 95.2734-63.1022C96.3693-62.0389 96.9173-60.4547 96.9173-58.3496L96.9173-12.0931C96.9173-10.0098 96.3693-8.43099 95.2734-7.35677C94.1774-6.28255 92.6204-5.74544 90.6022-5.74544L24.196-5.74544ZM41.7937-19.4844C50.2371-19.4844 55.157-24.5762 55.157-32.7617L55.157-33.5352C55.157-35.1035 54.2332-36.0488 52.7508-36.0488L44.157-36.0488C42.9109-36.0488 42.0516-35.2754 42.0516-34.0937C42.0516-32.9336 42.9109-32.1602 44.157-32.1602L50.409-32.1602L50.409-31.623C50.3445-26.918 46.8641-23.6953 41.8367-23.6953C35.9285-23.6953 32.2547-28.2715 32.2547-35.6836C32.2547-42.9668 35.8211-47.3066 41.7508-47.3066C45.3387-47.3066 48.0887-45.6094 49.657-42.3223C50.2586-41.1191 50.9676-40.6035 52.0633-40.6035C53.3738-40.6035 54.2117-41.4629 54.2117-42.7305C54.2117-43.2676 54.1473-43.8047 53.868-44.4922C52.1492-48.6387 47.5086-51.5176 41.7293-51.5176C32.8992-51.5176 27.3348-45.416 27.3348-35.6406C27.3348-25.6934 32.9207-19.4844 41.7937-19.4844ZM70.7005-19.6562C72.1829-19.6562 73.1067-20.6016 73.1067-22.1484L73.1067-32.9766L84.6008-32.9766C85.8899-32.9766 86.7708-33.7715 86.7708-35.0176C86.7708-36.2422 85.8899-37.0371 84.6008-37.0371L73.1067-37.0371L73.1067-46.834L85.7395-46.834C87.0715-46.834 87.9954-47.6504 87.9954-48.918C87.9954-50.1855 87.093-51.002 85.7395-51.002L70.7005-51.002C69.1965-51.002 68.2942-50.0566 68.2942-48.5098L68.2942-22.1484C68.2942-20.6016 69.1965-19.6562 70.7005-19.6562ZM61.2207-19.6562C62.7032-19.6562 63.627-20.6016 63.627-22.1484L63.627-48.8535C63.627-50.4004 62.7032-51.3457 61.2207-51.3457C59.7168-51.3457 58.8145-50.4004 58.8145-48.8535L58.8145-22.1484C58.8145-20.6016 59.7168-19.6562 61.2207-19.6562Z"/>
  </g>
  <g id="Thin-S" transform="matrix(1 0 0 1 799.485 696)">
   <path class="template-0 SFSymbolsPreview000000" d="M23.022-1.19708L90.8505-1.19708C94.3693-1.19708 97.0091-2.09016 98.7701-3.87632C100.531-5.66249 101.412-8.26611 101.412-11.6872L101.412-58.7607C101.412-62.1818 100.531-64.7918 98.7701-66.5905C97.0091-68.3893 94.3693-69.2887 90.8505-69.2887L23.022-69.2887C19.5431-69.2887 16.9132-68.4019 15.1323-66.6283C13.3514-64.8548 12.4609-62.2322 12.4609-58.7607L12.4609-11.6872C12.4609-8.24091 13.3514-5.63099 15.1323-3.85742C16.9132-2.08386 19.5431-1.19708 23.022-1.19708ZM23.1196-4.49691C20.7066-4.49691 18.875-5.12013 17.6249-6.36656C16.3747-7.61299 15.7497-9.45007 15.7497-11.8778L15.7497-58.6079C15.7497-61.043 16.3747-62.882 17.6249-64.1247C18.875-65.3674 20.7066-65.9888 23.1196-65.9888L90.7529-65.9888C93.1155-65.9888 94.9345-65.3674 96.2098-64.1247C97.4851-62.882 98.1228-61.043 98.1228-58.6079L98.1228-11.8778C98.1228-9.45007 97.4851-7.61299 96.2098-6.36656C94.9345-5.12013 93.1155-4.49691 90.7529-4.49691L23.1196-4.49691ZM42.0589-19.4946C50.2987-19.4946 55.2205-24.5044 55.2205-32.876L55.2205-34.3701C55.2205-35.3369 54.6493-35.9302 53.7264-35.9302L43.5311-35.9302C42.6742-35.9302 42.0809-35.4028 42.0809-34.6118C42.0809-33.8208 42.6742-33.2935 43.5311-33.2935L52.2323-33.2935L52.2323-32.1729C52.2323-26.1963 48.1893-22.2852 42.0589-22.2852C35.2694-22.2852 30.8968-27.6685 30.8968-36.04C30.8968-44.3018 35.1815-49.4214 42.0589-49.4214C46.5633-49.4214 50.0789-47.0703 51.617-42.9834C51.9686-42.0825 52.43-41.709 53.1771-41.709C54.012-41.709 54.5394-42.2583 54.5394-43.0933C54.5394-43.5107 54.4735-43.9502 54.2537-44.5435C52.5838-49.1357 47.8597-52.2119 42.0589-52.2119C33.4017-52.2119 27.8206-45.8618 27.8206-36.04C27.8206-26.0425 33.4676-19.4946 42.0589-19.4946ZM69.5267-19.6924C70.4496-19.6924 71.0208-20.2856 71.0208-21.2524L71.0208-34.3921L84.4242-34.3921C85.2811-34.3921 85.8524-34.9414 85.8524-35.7324C85.8524-36.5454 85.2811-37.0728 84.4242-37.0728L71.0208-37.0728L71.0208-48.9819L85.6766-48.9819C86.5555-48.9819 87.1268-49.5532 87.1268-50.3442C87.1268-51.1572 86.5555-51.7065 85.6766-51.7065L69.5267-51.7065C68.6039-51.7065 68.0326-51.1133 68.0326-50.1465L68.0326-21.2524C68.0326-20.2856 68.6039-19.6924 69.5267-19.6924ZM61.0772-19.6924C62.0001-19.6924 62.5714-20.2856 62.5714-21.2524L62.5714-50.4541C62.5714-51.4209 62.0001-52.0142 61.0772-52.0142C60.1544-52.0142 59.5831-51.4209 59.5831-50.4541L59.5831-21.2524C59.5831-20.2856 60.1544-19.6924 61.0772-19.6924Z"/>
  </g>
  <g id="Ultralight-S" transform="matrix(1 0 0 1 503.011 696)">
   <path class="template-0 SFSymbolsPreview000000" d="M22.4707-1.66016L90.9277-1.66016C94.248-1.66016 96.7464-2.51465 98.4228-4.22363C100.099-5.93262 100.937-8.39844 100.937-11.6211L100.937-58.8379C100.937-62.0606 100.099-64.5345 98.4228-66.2598C96.7464-67.9851 94.248-68.8477 90.9277-68.8477L22.4707-68.8477C19.1829-68.8477 16.6927-68.0013 15-66.3086C13.3073-64.6159 12.4609-62.1256 12.4609-58.8379L12.4609-11.6211C12.4609-8.36589 13.3073-5.89193 15-4.19922C16.6927-2.50651 19.1829-1.66016 22.4707-1.66016ZM22.5683-3.85742C19.9641-3.85742 17.9947-4.52474 16.6601-5.85938C15.3255-7.19401 14.6582-9.16342 14.6582-11.7676L14.6582-58.7402C14.6582-61.3444 15.3255-63.3138 16.6601-64.6484C17.9947-65.9831 19.9641-66.6504 22.5683-66.6504L90.8301-66.6504C93.3691-66.6504 95.3222-65.9831 96.6894-64.6484C98.0566-63.3138 98.7402-61.3444 98.7402-58.7402L98.7402-11.7676C98.7402-9.16342 98.0566-7.19401 96.6894-5.85938C95.3222-4.52474 93.3691-3.85742 90.8301-3.85742L22.5683-3.85742ZM41.2521-18.5283C49.3829-18.5283 54.3243-23.5596 54.3243-31.8252L54.3243-34.0937C54.3243-34.6777 53.9874-35.0371 53.4484-35.0371L41.881-35.0371C41.3419-35.0371 41.005-34.7002 41.005-34.2285C41.005-33.7568 41.3419-33.4199 41.881-33.4199L52.5499-33.4199L52.5499-31.5557C52.5499-24.5703 48.215-20.1904 41.2521-20.1904C33.8624-20.1904 28.8761-26.2998 28.8761-35.4189C28.8761-44.3809 33.7501-50.2207 41.2521-50.2207C46.5079-50.2207 50.7306-47.2559 52.1456-42.5166C52.3478-41.9551 52.5948-41.708 53.0665-41.708C53.5831-41.708 53.8527-42.0449 53.8527-42.5391C53.8527-42.876 53.7853-43.2578 53.6281-43.7295C51.9435-48.6484 47.1368-51.8828 41.2521-51.8828C32.7169-51.8828 27.0568-45.3242 27.0568-35.3965C27.0568-25.334 32.8068-18.5283 41.2521-18.5283ZM67.7654-18.6631C68.3045-18.6631 68.6639-19.0225 68.6639-19.6064L68.6639-34.6104L83.5555-34.6104C84.0945-34.6104 84.4314-34.9473 84.4314-35.4189C84.4314-35.8906 84.0945-36.2275 83.5555-36.2275L68.6639-36.2275L68.6639-49.7715L84.9031-49.7715C85.4422-49.7715 85.7791-50.1084 85.7791-50.6025C85.7791-51.0742 85.4422-51.4111 84.9031-51.4111L67.7654-51.4111C67.2264-51.4111 66.8894-51.0518 66.8894-50.4678L66.8894-19.6064C66.8894-19.0225 67.2264-18.6631 67.7654-18.6631ZM60.0229-18.6631C60.562-18.6631 60.9213-19.0225 60.9213-19.6064L60.9213-50.8047C60.9213-51.3887 60.562-51.748 60.0229-51.748C59.4838-51.748 59.1469-51.3887 59.1469-50.8047L59.1469-19.6064C59.1469-19.0225 59.4838-18.6631 60.0229-18.6631Z"/>
  </g>
 </g>
</svg>
